fontCallback.success({"glyphs":{"¦":{"x_min":357,"x_max":439.0625,"ha":777,"o":"m 439 500 l 357 500 l 357 1055 l 439 1055 l 439 500 m 439 -334 l 357 -334 l 357 222 l 439 222 l 439 -334 "},"Á":{"x_min":-77.84375,"x_max":912.375,"ha":979,"o":"m 277 332 l 193 186 q 167 108 167 139 q 244 58 167 58 l 276 58 l 265 0 l -77 0 l -66 58 l -39 58 q 22 77 -2 58 q 89 166 47 97 l 572 992 l 680 992 l 812 132 q 835 73 818 88 q 894 58 852 58 l 912 58 l 900 0 l 523 0 l 533 58 l 566 58 q 666 128 666 58 q 663 176 666 157 l 640 332 l 277 332 m 597 644 q 574 864 576 792 q 466 657 542 789 l 318 402 l 631 402 l 597 644 m 568 1089 q 716 1293 647 1180 l 865 1293 l 860 1278 q 619 1071 754 1154 l 564 1071 l 568 1089 "},"е":{"x_min":60,"x_max":659,"ha":685,"o":"m 556 173 q 571 138 571 164 q 505 34 571 82 q 330 -14 440 -14 q 134 62 209 -14 q 60 272 60 139 q 177 606 60 454 q 473 758 294 758 q 610 716 562 758 q 659 599 659 674 q 541 404 659 487 q 254 321 424 321 l 231 321 q 205 322 218 321 q 203 263 203 303 q 356 73 203 73 q 556 173 475 73 m 218 383 l 232 383 q 435 444 355 383 q 515 601 515 504 q 434 695 515 695 q 308 609 367 695 q 218 383 250 524 "},"Î":{"x_min":-29.484375,"x_max":599,"ha":510,"o":"m 584 992 l 572 933 l 553 933 q 458 908 487 933 q 418 833 428 883 l 275 152 q 268 113 268 123 q 369 58 268 58 l 386 58 l 374 0 l -29 0 l -18 58 l 0 58 q 136 158 114 58 l 280 839 q 285 878 285 865 q 185 933 285 933 l 167 933 l 180 992 l 584 992 m 189 1089 q 372 1293 315 1213 l 504 1293 q 599 1089 524 1213 l 594 1071 l 546 1071 q 422 1195 481 1115 q 244 1071 320 1109 l 185 1071 l 189 1089 "},"e":{"x_min":60,"x_max":659,"ha":685,"o":"m 556 173 q 571 138 571 164 q 505 34 571 82 q 330 -14 440 -14 q 134 62 209 -14 q 60 272 60 139 q 177 606 60 454 q 473 758 294 758 q 610 716 562 758 q 659 599 659 674 q 541 404 659 487 q 254 321 424 321 l 231 321 q 205 322 218 321 q 203 263 203 303 q 356 73 203 73 q 556 173 475 73 m 218 383 l 232 383 q 435 444 355 383 q 515 601 515 504 q 434 695 515 695 q 308 609 367 695 q 218 383 250 524 "},"»":{"x_min":33,"x_max":628,"ha":714,"o":"m 617 352 l 354 111 l 285 111 l 484 381 l 394 639 l 463 639 l 628 397 l 617 352 m 366 352 l 102 111 l 33 111 l 232 381 l 142 639 l 211 639 l 376 397 l 366 352 "},"Ѓ":{"x_min":-28.140625,"x_max":871,"ha":779,"o":"m 402 0 l -28 0 l -15 58 l 1 58 q 136 158 114 58 l 279 833 q 285 878 285 865 q 185 933 285 933 l 167 933 l 180 992 l 871 992 l 828 749 l 755 749 q 762 829 762 808 q 734 903 762 883 q 648 922 706 922 l 438 922 l 275 152 q 268 113 268 124 q 369 58 268 58 l 414 58 l 402 0 m 486 1089 q 634 1293 565 1180 l 783 1293 l 778 1278 q 537 1071 672 1154 l 482 1071 l 486 1089 "},"ў":{"x_min":-225.40625,"x_max":716,"ha":733,"o":"m 111 612 q 77 670 98 653 q 15 686 56 686 l 1 686 l 11 745 l 214 745 l 323 369 q 381 118 373 195 l 385 118 q 573 579 573 403 q 504 654 573 654 q 531 729 504 701 q 595 757 559 757 q 690 640 690 757 q 502 169 690 472 q 202 -234 315 -134 q -94 -334 89 -334 q -225 -308 -167 -334 l -204 -239 q -95 -254 -155 -254 q 294 -1 102 -254 l 111 612 m 199 1018 l 322 1050 q 313 989 313 1020 q 399 915 313 915 q 664 1087 556 915 l 716 1054 q 378 842 584 842 q 192 971 192 842 q 199 1018 192 996 "},"ò":{"x_min":60,"x_max":738,"ha":798,"o":"m 474 758 q 667 684 596 758 q 738 470 738 610 q 624 135 738 285 q 326 -14 511 -14 q 130 61 201 -14 q 60 272 60 137 q 174 609 60 460 q 474 758 288 758 m 341 56 q 526 192 457 56 q 594 494 594 328 q 458 687 594 687 q 273 551 343 687 q 203 247 203 414 q 341 56 203 56 m 498 842 q 319 1049 393 943 l 323 1064 l 462 1064 q 555 860 502 959 l 550 842 l 498 842 "},"^":{"x_min":82,"x_max":715,"ha":777,"o":"m 374 992 l 422 992 l 715 370 l 622 370 l 398 864 l 174 370 l 82 370 l 374 992 "},"«":{"x_min":84,"x_max":679,"ha":714,"o":"m 93 397 l 357 639 l 427 639 l 227 368 l 314 111 l 244 111 l 84 352 l 93 397 m 345 397 l 609 639 l 679 639 l 479 368 l 566 111 l 496 111 l 336 352 l 345 397 "},"ⁿ":{"x_min":90,"x_max":612.328125,"ha":576,"o":"m 203 536 l 90 536 l 159 867 q 165 904 165 892 q 106 945 165 945 l 99 945 l 111 992 l 295 992 l 280 905 l 288 905 q 358 978 325 957 q 451 1000 392 1000 q 554 907 554 1000 q 540 816 554 885 l 516 707 q 503 631 503 648 q 540 594 503 594 q 594 613 564 594 l 612 582 q 486 527 556 527 q 413 551 439 527 q 387 611 387 575 q 404 723 387 651 l 421 797 q 433 881 433 850 q 394 931 433 931 q 307 877 349 931 q 251 759 265 823 l 203 536 "},"к":{"x_min":60,"x_max":840,"ha":840,"o":"m 60 0 l 175 538 q 187 620 187 595 q 90 686 187 686 l 79 686 l 91 745 l 350 745 l 278 408 q 373 442 335 408 q 507 594 410 476 q 633 722 589 692 q 736 753 676 753 q 840 669 840 753 q 764 580 840 592 q 703 658 764 658 q 626 627 665 658 q 509 500 587 595 q 410 403 448 425 q 493 367 454 402 q 553 281 532 332 l 602 169 q 743 58 650 58 l 748 58 l 735 0 l 687 0 q 544 27 585 0 q 472 131 503 55 l 427 248 q 370 328 403 310 q 264 345 337 345 l 193 0 l 60 0 "},"í":{"x_min":86.4375,"x_max":523,"ha":423,"o":"m 86 686 l 98 745 l 347 745 l 253 298 q 232 144 232 198 q 278 73 232 73 q 378 109 318 73 l 403 68 q 215 -14 306 -14 q 131 23 163 -14 q 100 117 100 60 q 131 336 100 180 l 184 591 q 189 628 189 614 q 104 686 189 686 l 86 686 m 226 860 q 374 1064 305 951 l 523 1064 l 518 1049 q 277 842 412 925 l 222 842 l 226 860 "},"ˆ":{"x_min":254,"x_max":668,"ha":802,"o":"m 258 860 q 441 1064 384 984 l 573 1064 q 668 860 593 984 l 663 842 l 615 842 q 491 966 550 886 q 313 842 389 880 l 254 842 l 258 860 "},"µ":{"x_min":-3,"x_max":782.203125,"ha":839,"o":"m 150 67 q 128 -100 128 -47 q 205 -212 128 -201 q 87 -334 192 -334 q -3 -233 -3 -334 q 38 -23 -3 -171 q 123 312 97 189 l 214 745 l 345 745 l 254 308 q 238 180 238 234 q 340 73 238 73 q 468 134 412 73 q 544 298 523 195 l 639 745 l 770 745 l 658 224 q 641 117 641 145 q 682 73 641 73 q 758 96 712 73 l 782 49 q 620 -14 689 -14 q 517 119 522 -14 l 510 119 q 308 -14 419 -14 q 150 67 193 -14 "},"-":{"x_min":20,"x_max":403,"ha":431,"o":"m 20 326 l 41 431 l 403 431 l 380 326 l 20 326 "},"ѕ":{"x_min":35,"x_max":607,"ha":644,"o":"m 502 539 q 469 652 502 609 q 377 694 436 694 q 279 660 315 694 q 242 574 242 627 q 277 496 242 528 q 384 431 311 463 q 551 215 551 356 q 472 49 551 112 q 263 -14 393 -14 q 96 28 158 -14 q 35 142 35 70 q 59 210 35 187 q 122 234 84 234 q 164 97 122 146 q 280 48 205 48 q 430 178 430 48 q 398 262 430 227 q 290 332 366 296 q 156 431 190 380 q 122 548 122 481 q 196 698 122 640 q 389 757 270 757 q 549 718 492 757 q 607 625 607 680 q 502 539 607 539 "},"Q":{"x_min":72,"x_max":988,"ha":1031,"o":"m 510 -10 q 552 -189 516 -133 q 660 -244 587 -244 q 754 -232 710 -244 l 764 -291 q 627 -314 694 -314 q 360 -8 371 -314 q 148 115 224 14 q 72 369 72 216 q 228 807 72 608 q 628 1007 384 1007 q 888 906 789 1007 q 988 625 988 806 q 858 218 988 414 q 510 -10 728 23 m 444 59 q 727 250 617 59 q 836 661 836 442 q 778 861 836 791 q 617 931 721 931 q 333 738 443 931 q 223 328 223 546 q 283 128 223 198 q 444 59 342 59 "},"Ш":{"x_min":-27.78125,"x_max":1574.96875,"ha":1499,"o":"m -27 0 l -15 58 l 1 58 q 96 83 67 58 q 135 152 124 107 l 282 839 q 287 878 287 864 q 187 933 287 933 l 169 933 l 181 992 l 586 992 l 573 933 l 555 933 q 419 833 440 933 l 258 69 l 613 69 l 777 839 q 782 878 782 865 q 682 933 782 933 l 664 933 l 676 992 l 1080 992 l 1068 933 l 1050 933 q 956 910 985 933 q 917 840 928 888 l 752 69 l 1107 69 l 1271 839 q 1276 878 1276 865 q 1176 933 1276 933 l 1158 933 l 1170 992 l 1574 992 l 1562 933 l 1544 933 q 1450 910 1479 933 q 1411 840 1422 888 l 1264 152 q 1258 113 1258 124 q 1358 58 1258 58 l 1376 58 l 1364 0 l -27 0 "},"M":{"x_min":-27.78125,"x_max":1377.921875,"ha":1303,"o":"m 798 0 l 810 58 l 814 58 q 897 80 874 58 q 933 145 921 102 l 1091 888 l 584 0 l 509 0 l 375 888 l 219 152 q 213 113 213 123 q 314 58 213 58 l 331 58 l 319 0 l -27 0 l -15 58 l 2 58 q 98 82 71 58 q 135 151 125 107 l 280 839 q 286 878 286 865 q 185 933 286 933 l 168 933 l 180 992 l 495 992 l 613 200 l 1067 992 l 1377 992 l 1365 933 l 1347 933 q 1251 908 1280 933 q 1212 833 1222 882 l 1067 152 q 1062 113 1062 126 q 1162 58 1062 58 l 1180 58 l 1167 0 l 798 0 "},"ј":{"x_min":-194.984375,"x_max":395,"ha":404,"o":"m 311 883 q 234 959 234 883 q 256 1030 234 1003 q 317 1057 279 1057 q 395 980 395 1057 q 371 907 395 932 q 311 883 348 883 m -194 -323 l -182 -262 q -118 -271 -147 -271 q -8 -208 -48 -271 q 58 -10 30 -145 l 185 591 q 190 628 190 614 q 105 686 190 686 l 87 686 l 99 745 l 348 745 l 188 -10 q 83 -255 153 -176 q -114 -334 13 -334 q -194 -323 -153 -334 "},"{":{"x_min":93.859375,"x_max":549.640625,"ha":595,"o":"m 458 -178 q 310 -125 363 -178 q 258 21 258 -73 l 258 262 q 93 409 258 404 l 93 469 q 258 614 258 472 l 258 856 q 458 1055 258 1055 l 549 1055 l 549 995 l 508 995 q 394 849 394 995 l 394 611 q 239 440 394 466 l 239 439 q 394 267 394 412 l 394 27 q 508 -118 394 -118 l 549 -118 l 549 -178 l 458 -178 "},"¼":{"x_min":18.25,"x_max":1119.953125,"ha":1167,"o":"m 18 399 l 28 445 l 92 445 q 160 498 149 445 l 244 898 l 115 898 l 125 946 l 194 946 q 321 999 291 946 l 390 999 l 293 539 q 283 481 283 491 q 332 445 283 445 l 396 445 l 386 399 l 18 399 m 284 0 l 188 0 l 887 992 l 982 992 l 284 0 m 974 177 l 961 120 q 956 82 956 95 q 1004 47 956 47 l 1032 47 l 1022 1 l 717 1 l 727 47 l 765 47 q 833 100 823 47 l 850 177 l 605 177 l 612 224 l 951 601 l 1063 601 l 987 236 l 1119 236 l 1107 177 l 974 177 m 896 387 q 924 496 913 464 l 895 456 l 698 236 l 862 236 l 896 387 "},"#":{"x_min":46.125,"x_max":757.796875,"ha":777,"o":"m 704 364 l 695 282 l 520 282 l 438 0 l 354 0 l 437 282 l 242 282 l 161 0 l 78 0 l 159 282 l 46 282 l 55 364 l 184 364 l 265 636 l 99 636 l 108 719 l 289 719 l 368 992 l 453 992 l 372 719 l 567 719 l 646 992 l 730 992 l 649 719 l 757 719 l 749 636 l 626 636 l 546 364 l 704 364 m 269 364 l 463 364 l 542 636 l 348 636 l 269 364 "},"Ê":{"x_min":-29.125,"x_max":880,"ha":865,"o":"m 257 69 l 524 69 q 682 183 642 69 l 703 242 l 776 242 l 715 0 l -29 0 l -18 58 l 0 58 q 98 83 70 58 q 135 151 125 107 l 279 833 q 283 867 283 852 q 264 916 283 899 q 185 933 245 933 l 168 933 l 180 992 l 880 992 l 835 749 l 763 749 l 767 791 q 770 829 770 824 q 671 922 770 922 l 438 922 l 359 553 l 694 553 l 680 483 l 345 483 l 257 69 m 373 1089 q 556 1293 499 1213 l 688 1293 q 783 1089 708 1213 l 778 1071 l 730 1071 q 606 1195 665 1115 q 428 1071 504 1109 l 369 1071 l 373 1089 "},"Џ":{"x_min":-26.78125,"x_max":1136.96875,"ha":1060,"o":"m 826 152 q 820 113 820 124 q 920 58 820 58 l 938 58 l 926 0 l 637 0 q 418 -292 482 0 l 355 -292 q 372 -161 372 -218 q 248 0 372 0 l -26 0 l -13 58 l 2 58 q 97 83 68 58 q 136 152 125 107 l 283 839 q 288 878 288 864 q 188 933 288 933 l 170 933 l 182 992 l 587 992 l 574 933 l 556 933 q 461 909 492 933 q 420 833 431 884 l 259 69 l 669 69 l 833 839 q 838 878 838 865 q 738 933 838 933 l 720 933 l 732 992 l 1136 992 l 1124 933 l 1106 933 q 1012 910 1041 933 q 973 840 984 888 l 826 152 "},")":{"x_min":-68,"x_max":440,"ha":481,"o":"m 180 980 l 194 1044 q 440 608 440 936 q 304 100 440 326 q -68 -189 168 -125 l -54 -125 q 223 226 137 -22 q 309 673 309 474 q 180 980 309 890 "},"э":{"x_min":1,"x_max":604,"ha":664,"o":"m 120 549 q 103 604 103 569 q 165 712 103 666 q 337 758 227 758 q 535 683 467 758 q 604 470 604 608 q 495 138 604 290 q 224 -14 386 -14 q 58 26 115 -14 q 1 134 1 66 q 31 199 1 173 q 119 226 61 226 q 150 97 119 142 q 232 52 180 52 q 360 132 302 52 q 445 342 418 211 l 123 342 l 140 413 l 458 413 q 460 466 460 440 q 313 670 460 670 q 120 549 186 670 "},"Å":{"x_min":-77.84375,"x_max":912.375,"ha":979,"o":"m 277 332 l 193 186 q 167 108 167 139 q 244 58 167 58 l 276 58 l 265 0 l -77 0 l -66 58 l -39 58 q 22 77 -2 58 q 89 166 47 97 l 572 992 l 680 992 l 812 132 q 835 73 818 88 q 894 58 852 58 l 912 58 l 900 0 l 523 0 l 533 58 l 566 58 q 666 128 666 58 q 663 176 666 157 l 640 332 l 277 332 m 597 644 q 574 864 576 792 q 466 657 542 789 l 318 402 l 631 402 l 597 644 m 620 924 q 500 963 547 924 q 453 1075 453 1003 q 499 1185 453 1145 q 620 1226 546 1226 q 740 1185 693 1226 q 787 1075 787 1145 q 739 963 787 1003 q 620 924 692 924 m 620 1158 q 528 1075 528 1158 q 620 991 528 991 q 711 1075 711 991 q 620 1158 711 1158 "},"ш":{"x_min":79.375,"x_max":1217.28125,"ha":1242,"o":"m 911 175 q 658 -12 800 -12 q 510 141 510 -12 q 513 175 510 158 l 498 175 q 245 -12 387 -12 q 97 141 97 -12 q 114 257 97 179 l 179 558 q 187 620 187 596 q 90 686 187 686 l 79 686 l 91 745 l 348 745 l 259 329 q 230 157 230 192 q 294 75 230 75 q 441 167 365 75 q 548 358 518 258 l 628 745 l 758 745 l 671 336 q 643 157 643 207 q 707 75 643 75 q 866 181 784 75 q 970 388 948 287 l 1045 745 l 1174 745 l 1078 298 q 1057 144 1057 204 q 1103 73 1057 73 q 1192 104 1142 73 l 1217 63 q 1040 -14 1129 -14 q 955 22 988 -14 q 922 118 922 58 q 927 175 922 143 l 911 175 "},"Я":{"x_min":-50.125,"x_max":986.3125,"ha":911,"o":"m 457 428 l 253 124 q 151 26 204 52 q -30 0 98 0 l -50 0 l -41 58 l -37 58 q 40 79 6 58 q 124 169 74 99 l 336 465 q 192 692 192 536 q 297 920 192 848 q 643 992 403 992 l 986 992 l 974 933 l 955 933 q 860 908 889 933 q 820 833 831 882 l 676 152 q 670 113 670 126 q 771 58 670 58 l 788 58 l 776 0 l 372 0 l 383 58 l 401 58 q 538 158 516 58 l 595 428 l 457 428 m 700 922 l 612 922 q 343 692 343 922 q 561 497 343 497 l 609 497 l 700 922 "},"¸":{"x_min":49,"x_max":374,"ha":463,"o":"m 262 -47 q 343 -87 312 -54 q 374 -163 374 -119 q 315 -288 374 -243 q 152 -334 256 -334 q 49 -318 99 -334 l 63 -247 q 156 -258 111 -258 q 260 -173 260 -258 q 171 -95 260 -104 l 224 12 l 289 12 l 262 -47 "},"a":{"x_min":60,"x_max":797.625,"ha":804,"o":"m 507 209 l 498 209 q 238 -14 398 -14 q 107 52 154 -14 q 60 239 60 119 q 178 594 60 431 q 473 758 297 758 q 636 707 567 758 l 697 743 l 742 743 l 647 298 q 626 144 626 202 q 672 73 626 73 q 772 109 711 73 l 797 68 q 601 -14 697 -14 q 493 101 493 -14 q 507 209 493 145 m 586 645 q 481 695 554 695 q 283 544 363 695 q 203 234 203 393 q 290 73 203 73 q 434 175 358 73 q 534 399 510 278 l 586 645 "},"=":{"x_min":102,"x_max":698,"ha":777,"o":"m 698 673 l 698 590 l 102 590 l 102 673 l 698 673 m 698 400 l 698 317 l 102 317 l 102 400 l 698 400 "},"Ћ":{"x_min":99.625,"x_max":1062.578125,"ha":1154,"o":"m 1062 58 l 1049 0 l 652 0 l 663 58 l 681 58 q 817 156 796 58 l 836 243 q 853 388 853 326 q 695 518 853 518 q 490 484 595 518 l 417 152 q 412 113 412 127 q 512 58 412 58 l 530 58 l 518 0 l 99 0 l 112 58 l 144 58 q 241 82 214 58 q 278 151 268 106 l 441 922 l 336 922 q 197 808 237 922 l 177 749 l 105 749 l 164 992 l 890 992 l 845 749 l 773 749 q 780 833 780 803 q 689 922 780 922 l 581 922 l 505 567 q 724 609 627 609 q 990 403 990 609 q 971 253 990 338 l 949 152 q 944 114 944 126 q 1044 58 944 58 l 1062 58 "},"˚":{"x_min":175,"x_max":509,"ha":463,"o":"m 342 828 q 222 867 269 828 q 175 979 175 907 q 221 1089 175 1049 q 342 1130 268 1130 q 462 1089 415 1130 q 509 979 509 1049 q 461 867 509 907 q 342 828 414 828 m 342 1062 q 250 979 250 1062 q 342 895 250 895 q 433 979 433 895 q 342 1062 433 1062 "},"ú":{"x_min":79.734375,"x_max":809.40625,"ha":832,"o":"m 91 745 l 350 745 l 258 329 q 230 161 230 203 q 298 75 230 75 q 451 178 369 75 q 559 399 534 282 l 631 745 l 766 745 l 670 298 q 649 144 649 200 q 695 73 649 73 q 784 104 734 73 l 809 63 q 633 -14 721 -14 q 548 23 580 -14 q 516 118 516 60 q 523 200 516 154 l 512 200 q 377 32 437 76 q 244 -12 318 -12 q 96 141 96 -12 q 121 294 96 186 l 175 538 q 187 620 187 593 q 90 686 187 686 l 79 686 l 91 745 m 439 860 q 587 1064 518 951 l 736 1064 l 731 1049 q 490 842 625 925 l 435 842 l 439 860 "},"д":{"x_min":60,"x_max":757,"ha":818,"o":"m 615 646 q 566 904 615 810 q 423 999 516 999 q 281 977 348 999 l 263 1037 q 443 1070 340 1070 q 675 953 593 1070 q 757 616 757 836 q 646 154 757 322 q 343 -14 535 -14 q 133 61 207 -14 q 60 273 60 136 q 171 583 60 453 q 454 714 283 714 q 615 646 565 714 m 613 530 q 447 643 564 643 q 273 537 344 643 q 203 259 203 430 q 363 56 203 56 q 536 188 469 56 q 613 530 604 320 "},"¯":{"x_min":-7,"x_max":645,"ha":638,"o":"m 645 1054 l -7 1054 l -7 1137 l 645 1137 l 645 1054 "},"Z":{"x_min":-24,"x_max":876,"ha":840,"o":"m 865 935 l 165 69 l 536 69 q 675 183 639 69 l 695 243 l 768 243 l 709 0 l -24 0 l -12 55 l 686 922 l 362 922 q 223 808 260 922 l 203 749 l 131 749 l 190 992 l 876 992 l 865 935 "},"u":{"x_min":79.734375,"x_max":809.40625,"ha":832,"o":"m 91 745 l 350 745 l 258 329 q 230 161 230 203 q 298 75 230 75 q 451 178 369 75 q 559 399 534 282 l 631 745 l 766 745 l 670 298 q 649 144 649 200 q 695 73 649 73 q 784 104 734 73 l 809 63 q 633 -14 721 -14 q 548 23 580 -14 q 516 118 516 60 q 523 200 516 154 l 512 200 q 377 32 437 76 q 244 -12 318 -12 q 96 141 96 -12 q 121 294 96 186 l 175 538 q 187 620 187 593 q 90 686 187 686 l 79 686 l 91 745 "},"k":{"x_min":61,"x_max":831,"ha":790,"o":"m 470 532 q 573 663 573 621 q 511 684 573 684 l 523 743 l 831 743 l 818 684 q 594 555 737 684 l 469 440 l 596 165 q 737 48 649 48 l 725 -10 q 555 16 609 -10 q 464 133 501 43 l 373 355 l 247 274 l 190 0 l 61 0 l 241 858 q 254 931 254 919 q 156 996 254 996 l 145 996 l 157 1055 l 413 1055 l 359 800 q 251 342 284 449 l 470 532 "},"Ù":{"x_min":134,"x_max":1105.234375,"ha":1014,"o":"m 139 933 l 151 992 l 555 992 l 545 933 l 526 933 q 431 908 461 933 q 390 833 401 884 l 286 343 q 269 211 269 262 q 469 61 269 61 q 647 113 581 61 q 739 286 713 165 l 857 839 q 862 877 862 864 q 762 933 862 933 l 744 933 l 756 992 l 1105 992 l 1094 933 l 1076 933 q 981 908 1010 933 q 939 833 951 884 l 823 283 q 449 -14 760 -14 q 214 48 295 -14 q 134 226 134 110 q 148 349 134 282 l 252 839 q 257 877 257 865 q 157 933 257 933 l 139 933 m 666 1071 q 487 1278 561 1172 l 491 1293 l 630 1293 q 723 1089 670 1188 l 718 1071 l 666 1071 "},"З":{"x_min":18,"x_max":799,"ha":838,"o":"m 123 266 q 182 122 123 185 q 341 59 242 59 q 574 298 574 59 q 518 428 574 381 q 358 474 462 474 l 248 474 l 263 544 l 379 544 q 570 609 494 544 q 647 779 647 675 q 604 895 647 853 q 483 936 561 936 q 289 729 331 936 q 182 816 182 729 q 268 952 182 898 q 489 1006 355 1006 q 712 946 626 1006 q 799 787 799 887 q 720 600 799 675 q 512 510 642 526 q 667 440 608 497 q 726 299 726 384 q 621 66 726 148 q 324 -16 517 -16 q 98 32 178 -16 q 18 165 18 80 q 47 239 18 212 q 123 266 77 266 "},"¢":{"x_min":117,"x_max":734,"ha":777,"o":"m 336 123 q 173 215 230 140 q 117 406 117 290 q 222 724 117 575 q 497 891 327 874 l 519 992 l 588 992 l 567 889 q 690 845 646 882 q 734 758 734 809 q 700 689 734 716 q 610 661 666 661 q 549 811 610 774 l 422 206 q 614 306 537 210 q 628 271 628 296 q 568 170 628 218 q 404 119 509 123 l 379 0 l 310 0 l 336 123 m 355 215 l 483 822 q 325 664 390 805 q 261 395 261 524 q 355 215 261 250 "},"é":{"x_min":60,"x_max":714,"ha":685,"o":"m 556 173 q 571 138 571 164 q 505 34 571 82 q 330 -14 440 -14 q 134 62 209 -14 q 60 272 60 139 q 177 606 60 454 q 473 758 294 758 q 610 716 562 758 q 659 599 659 674 q 541 404 659 487 q 254 321 424 321 l 231 321 q 205 322 218 321 q 203 263 203 303 q 356 73 203 73 q 556 173 475 73 m 218 383 l 232 383 q 435 444 355 383 q 515 601 515 504 q 434 695 515 695 q 308 609 367 695 q 218 383 250 524 m 417 860 q 565 1064 496 951 l 714 1064 l 709 1049 q 468 842 603 925 l 413 842 l 417 860 "},"B":{"x_min":-29.484375,"x_max":865,"ha":908,"o":"m -18 58 l 0 58 q 136 158 114 58 l 280 839 q 285 878 285 865 q 185 933 285 933 l 167 933 l 180 992 l 540 992 q 865 783 865 992 q 638 524 865 577 l 637 519 q 807 316 807 485 q 704 82 807 164 q 406 0 602 0 l -29 0 l -18 58 m 359 554 l 466 554 q 713 765 713 554 q 521 922 713 922 l 438 922 l 359 554 m 256 69 l 391 69 q 655 326 655 69 q 461 484 655 484 l 345 484 l 256 69 "},"В":{"x_min":-29.484375,"x_max":865,"ha":908,"o":"m -18 58 l 0 58 q 136 158 114 58 l 280 839 q 285 878 285 865 q 185 933 285 933 l 167 933 l 180 992 l 540 992 q 865 783 865 992 q 638 524 865 577 l 637 519 q 807 316 807 485 q 704 82 807 164 q 406 0 602 0 l -29 0 l -18 58 m 359 554 l 466 554 q 713 765 713 554 q 521 922 713 922 l 438 922 l 359 554 m 256 69 l 391 69 q 655 326 655 69 q 461 484 655 484 l 345 484 l 256 69 "},"І":{"x_min":-29.484375,"x_max":584.296875,"ha":510,"o":"m 584 992 l 572 933 l 553 933 q 458 908 487 933 q 418 833 428 883 l 275 152 q 268 113 268 123 q 369 58 268 58 l 386 58 l 374 0 l -29 0 l -18 58 l 0 58 q 136 158 114 58 l 280 839 q 285 878 285 865 q 185 933 285 933 l 167 933 l 180 992 l 584 992 "},"H":{"x_min":-29.484375,"x_max":1175.984375,"ha":1101,"o":"m 561 0 l 573 58 l 590 58 q 686 83 657 58 q 727 158 716 107 l 796 483 l 344 483 l 275 152 q 268 113 268 123 q 369 58 268 58 l 386 58 l 374 0 l -29 0 l -18 58 l 0 58 q 95 83 66 58 q 136 158 125 109 l 280 839 q 285 878 285 865 q 185 933 285 933 l 167 933 l 180 992 l 584 992 l 572 933 l 553 933 q 458 908 487 933 q 418 833 428 883 l 359 553 l 810 553 l 871 839 q 876 878 876 865 q 777 933 876 933 l 758 933 l 771 992 l 1175 992 l 1163 933 l 1145 933 q 1049 908 1079 933 q 1010 833 1020 882 l 866 152 q 860 113 860 126 q 960 58 860 58 l 978 58 l 965 0 l 561 0 "},"î":{"x_min":50,"x_max":464,"ha":423,"o":"m 86 686 l 98 745 l 347 745 l 253 298 q 232 144 232 198 q 278 73 232 73 q 378 109 318 73 l 403 68 q 215 -14 306 -14 q 131 23 163 -14 q 100 117 100 60 q 131 336 100 180 l 184 591 q 189 628 189 614 q 104 686 189 686 l 86 686 m 54 860 q 237 1064 180 984 l 369 1064 q 464 860 389 984 l 459 842 l 411 842 q 287 966 346 886 q 109 842 185 880 l 50 842 l 54 860 "},"¥":{"x_min":82.125,"x_max":882.015625,"ha":749,"o":"m 394 150 q 388 112 388 121 q 489 58 388 58 l 520 58 l 508 0 l 82 0 l 94 58 l 126 58 q 223 82 196 58 q 259 149 251 106 l 279 241 l 84 241 l 98 311 l 293 311 l 314 404 l 119 404 l 133 474 l 301 474 l 194 860 q 168 916 184 899 q 111 933 152 933 l 107 933 l 119 992 l 444 992 l 432 933 l 429 933 q 358 924 382 933 q 333 886 333 916 q 350 798 333 857 l 386 648 q 415 480 409 549 q 487 593 430 506 l 603 762 q 665 893 665 854 q 590 933 665 933 l 586 933 l 599 992 l 882 992 l 869 933 l 857 933 q 804 917 826 933 q 729 825 783 901 l 484 474 l 657 474 l 643 404 l 449 404 l 428 311 l 622 311 l 608 241 l 413 241 l 394 150 "},"U":{"x_min":134,"x_max":1105.234375,"ha":1014,"o":"m 139 933 l 151 992 l 555 992 l 545 933 l 526 933 q 431 908 461 933 q 390 833 401 884 l 286 343 q 269 211 269 262 q 469 61 269 61 q 647 113 581 61 q 739 286 713 165 l 857 839 q 862 877 862 864 q 762 933 862 933 l 744 933 l 756 992 l 1105 992 l 1094 933 l 1076 933 q 981 908 1010 933 q 939 833 951 884 l 823 283 q 449 -14 760 -14 q 214 48 295 -14 q 134 226 134 110 q 148 349 134 282 l 252 839 q 257 877 257 865 q 157 933 257 933 l 139 933 "},"Ñ":{"x_min":-28.140625,"x_max":1148.484375,"ha":1060,"o":"m 899 839 q 905 878 905 865 q 805 933 905 933 l 787 933 l 799 992 l 1148 992 l 1135 933 l 1117 933 q 1022 908 1051 933 q 983 833 993 882 l 806 0 l 716 0 l 359 814 l 219 152 q 213 113 213 123 q 313 58 213 58 l 331 58 l 319 0 l -28 0 l -15 58 l 2 58 q 95 83 67 58 q 136 158 124 109 l 280 839 q 285 878 285 865 q 185 933 285 933 l 167 933 l 180 992 l 433 992 l 769 225 l 899 839 m 912 1235 l 975 1235 q 794 1071 926 1071 q 680 1115 739 1071 q 594 1158 619 1158 q 511 1085 535 1158 l 449 1085 q 630 1249 497 1249 q 745 1205 686 1249 q 829 1161 804 1161 q 912 1235 889 1161 "},"F":{"x_min":-29.125,"x_max":880,"ha":819,"o":"m -18 58 l 0 58 q 93 80 65 58 q 135 151 122 103 l 280 839 q 286 878 286 865 q 185 933 286 933 l 168 933 l 180 992 l 880 992 l 835 749 l 763 749 l 766 773 q 768 798 766 786 q 770 829 770 821 q 666 922 770 922 l 438 922 l 352 521 l 687 521 l 673 451 l 339 451 l 276 158 q 272 123 272 135 q 368 58 272 58 l 413 58 l 402 0 l -29 0 l -18 58 "},"*":{"x_min":161,"x_max":750,"ha":695,"o":"m 190 918 l 260 1015 l 441 839 l 452 1063 l 570 1037 l 487 830 l 724 914 l 750 797 l 505 779 l 720 663 l 651 569 l 467 740 l 459 518 l 341 543 l 422 750 l 185 665 l 161 782 l 403 801 l 190 918 "},"Ќ":{"x_min":-29.484375,"x_max":1031,"ha":973,"o":"m -29 0 l -18 58 l 0 58 q 95 83 66 58 q 136 158 124 109 l 280 839 q 285 878 285 865 q 185 933 285 933 l 167 933 l 180 992 l 584 992 l 572 933 l 553 933 q 458 908 487 933 q 418 833 428 882 l 354 531 q 492 564 450 531 q 631 774 534 598 q 761 947 699 894 q 918 1000 824 1000 q 1031 917 1031 1000 q 943 819 1031 826 q 874 897 943 897 q 690 733 779 897 q 539 525 589 552 q 657 404 619 520 l 737 169 q 877 58 775 58 l 881 58 l 869 0 l 849 0 q 678 20 729 0 q 600 132 627 41 l 524 377 q 481 452 507 431 q 342 472 455 472 l 275 152 q 268 113 268 123 q 369 58 268 58 l 386 58 l 374 0 l -29 0 m 593 1089 q 741 1293 672 1180 l 890 1293 l 885 1278 q 644 1071 779 1154 l 589 1071 l 593 1089 "},"°":{"x_min":117,"x_max":538,"ha":555,"o":"m 326 992 q 475 930 413 992 q 538 781 538 868 q 476 633 538 695 q 326 572 414 572 q 178 633 239 572 q 117 781 117 694 q 179 930 117 869 q 326 992 241 992 m 326 654 q 418 691 380 654 q 455 781 455 728 q 417 872 455 835 q 326 909 379 909 q 237 873 275 909 q 199 781 199 836 q 237 691 199 728 q 326 654 275 654 "},"å":{"x_min":60,"x_max":797.625,"ha":804,"o":"m 507 209 l 498 209 q 238 -14 398 -14 q 107 52 154 -14 q 60 239 60 119 q 178 594 60 431 q 473 758 297 758 q 636 707 567 758 l 697 743 l 742 743 l 647 298 q 626 144 626 202 q 672 73 626 73 q 772 109 711 73 l 797 68 q 601 -14 697 -14 q 493 101 493 -14 q 507 209 493 145 m 586 645 q 481 695 554 695 q 283 544 363 695 q 203 234 203 393 q 290 73 203 73 q 434 175 358 73 q 534 399 510 278 l 586 645 m 500 828 q 380 867 427 828 q 333 979 333 907 q 379 1089 333 1049 q 500 1130 426 1130 q 620 1089 573 1130 q 667 979 667 1049 q 619 867 667 907 q 500 828 572 828 m 500 1062 q 408 979 408 1062 q 500 895 408 895 q 591 979 591 895 q 500 1062 591 1062 "},"0":{"x_min":56,"x_max":736,"ha":777,"o":"m 472 1007 q 665 923 594 1007 q 736 688 736 840 q 622 202 736 421 q 323 -16 509 -16 q 127 72 199 -16 q 56 320 56 161 q 171 797 56 587 q 472 1007 286 1007 m 334 60 q 528 260 455 60 q 601 714 601 460 q 458 930 601 930 q 263 729 336 930 q 190 280 190 528 q 334 60 190 60 "},"ö":{"x_min":60,"x_max":738,"ha":798,"o":"m 474 758 q 667 684 596 758 q 738 470 738 610 q 624 135 738 285 q 326 -14 511 -14 q 130 61 201 -14 q 60 272 60 137 q 174 609 60 460 q 474 758 288 758 m 341 56 q 526 192 457 56 q 594 494 594 328 q 458 687 594 687 q 273 551 343 687 q 203 247 203 414 q 341 56 203 56 m 350 878 q 283 947 283 878 q 356 1035 283 1035 q 424 965 424 1035 q 350 878 424 878 m 614 878 q 547 947 547 878 q 620 1035 547 1035 q 688 965 688 1035 q 614 878 688 878 "},"Õ":{"x_min":72,"x_max":988,"ha":1031,"o":"m 628 1007 q 888 906 789 1007 q 988 625 988 806 q 833 185 988 386 q 436 -16 678 -16 q 171 88 271 -16 q 72 369 72 192 q 228 807 72 608 q 628 1007 384 1007 m 444 59 q 727 251 617 59 q 836 661 836 443 q 778 861 836 791 q 617 931 721 931 q 333 738 443 931 q 223 329 223 546 q 283 129 223 199 q 444 59 342 59 m 862 1235 l 925 1235 q 744 1071 876 1071 q 630 1115 689 1071 q 544 1158 569 1158 q 461 1085 485 1158 l 399 1085 q 580 1249 447 1249 q 695 1205 636 1249 q 779 1161 754 1161 q 862 1235 839 1161 "},"þ":{"x_min":-33,"x_max":721,"ha":781,"o":"m 168 17 q 158 -49 162 -35 l 137 -151 q 127 -215 127 -190 q 225 -275 127 -275 l 243 -275 l 230 -334 l -33 -334 l 219 858 q 232 931 232 916 q 135 996 232 996 l 123 996 l 136 1055 l 392 1055 l 320 722 q 279 559 309 668 l 287 559 q 541 758 387 758 q 673 693 626 758 q 721 507 721 629 q 603 153 721 320 q 306 -14 486 -14 q 168 17 224 -14 m 190 97 q 300 48 234 48 q 497 199 416 48 q 577 508 577 350 q 553 627 577 585 q 487 670 529 670 q 341 568 415 670 q 247 362 268 466 l 190 97 "},"]":{"x_min":-65.390625,"x_max":505,"ha":500,"o":"m -65 -178 l -53 -118 l 6 -118 q 100 -93 71 -118 q 140 -18 129 -68 l 337 901 q 342 940 342 926 q 242 995 342 995 l 182 995 l 195 1055 l 505 1055 l 242 -178 l -65 -178 "},"А":{"x_min":-77.84375,"x_max":912.375,"ha":979,"o":"m 277 332 l 193 186 q 167 108 167 139 q 244 58 167 58 l 276 58 l 265 0 l -77 0 l -66 58 l -39 58 q 22 77 -2 58 q 89 166 47 97 l 572 992 l 680 992 l 812 132 q 835 73 818 88 q 894 58 852 58 l 912 58 l 900 0 l 523 0 l 533 58 l 566 58 q 666 128 666 58 q 663 176 666 157 l 640 332 l 277 332 m 597 644 q 574 864 576 792 q 466 657 542 789 l 318 402 l 631 402 l 597 644 "},"Ы":{"x_min":-29.484375,"x_max":1334.3125,"ha":1260,"o":"m -18 58 l 22 58 q 88 79 52 58 q 136 158 123 99 l 280 839 q 285 878 285 865 q 185 933 285 933 l 167 933 l 180 992 l 584 992 l 572 933 l 553 933 q 457 906 485 933 q 416 825 428 879 l 357 549 l 395 549 q 737 316 737 549 q 634 82 737 165 q 337 0 532 0 l -29 0 l -18 58 m 256 69 l 321 69 q 585 303 585 69 q 537 438 585 396 q 390 479 489 479 l 343 479 l 256 69 m 1334 992 l 1322 933 l 1303 933 q 1208 908 1237 933 q 1168 833 1178 883 l 1024 152 q 1018 113 1018 126 q 1119 58 1018 58 l 1136 58 l 1124 0 l 720 0 l 731 58 l 749 58 q 886 158 864 58 l 1030 839 q 1035 878 1035 865 q 935 933 1035 933 l 917 933 l 930 992 l 1334 992 "},"8":{"x_min":14,"x_max":741,"ha":777,"o":"m 288 507 q 153 737 153 605 q 238 935 153 864 q 485 1006 324 1006 q 672 950 603 1006 q 741 803 741 894 q 686 649 741 713 q 499 529 631 584 q 675 280 675 426 q 576 62 675 138 q 308 -14 478 -14 q 94 52 174 -14 q 14 225 14 119 q 74 386 14 321 q 288 507 135 451 m 432 562 q 616 793 616 641 q 578 899 616 861 q 474 936 541 936 q 338 886 389 936 q 287 753 287 836 q 432 562 287 641 m 351 470 q 148 223 148 395 q 195 100 148 145 q 325 55 243 55 q 481 106 422 55 q 540 248 540 158 q 494 371 540 319 q 351 470 449 422 "},"R":{"x_min":-51.78125,"x_max":839,"ha":899,"o":"m 312 438 l 251 153 q 245 114 245 124 q 345 58 245 58 l 391 58 l 378 0 l -51 0 l -38 58 l -21 58 q 74 82 47 58 q 111 151 101 107 l 256 839 q 262 878 262 865 q 162 933 262 933 l 144 933 l 156 992 l 520 992 q 839 756 839 992 q 581 465 839 526 l 682 168 q 731 77 706 97 q 796 58 756 58 l 807 58 l 796 0 l 777 0 q 609 31 658 0 q 530 162 559 63 l 450 438 l 312 438 m 327 507 l 432 507 q 620 569 554 507 q 687 748 687 631 q 646 880 687 838 q 508 922 606 922 l 414 922 l 327 507 "},"o":{"x_min":60,"x_max":738,"ha":798,"o":"m 474 758 q 667 684 596 758 q 738 470 738 610 q 624 135 738 285 q 326 -14 511 -14 q 130 61 201 -14 q 60 272 60 137 q 174 609 60 460 q 474 758 288 758 m 341 56 q 526 192 457 56 q 594 494 594 328 q 458 687 594 687 q 273 551 343 687 q 203 247 203 414 q 341 56 203 56 "},"5":{"x_min":11,"x_max":741,"ha":777,"o":"m 175 485 l 128 495 l 277 992 l 741 992 l 703 782 l 644 782 q 648 847 648 835 q 585 880 648 880 l 315 880 l 224 571 q 357 593 291 593 q 571 525 494 593 q 649 337 649 457 q 540 84 649 182 q 254 -14 432 -14 q 11 124 11 -14 q 115 210 11 210 q 266 62 120 62 q 441 132 378 62 q 504 327 504 202 q 456 466 504 416 q 326 516 407 516 q 175 485 252 516 "},"Ѕ":{"x_min":10,"x_max":769,"ha":756,"o":"m 117 289 q 173 119 117 183 q 328 55 229 55 q 482 103 425 55 q 539 233 539 150 q 506 344 539 298 q 364 451 474 389 q 210 583 253 516 q 167 737 167 651 q 257 931 167 857 q 504 1006 348 1006 q 697 963 625 1006 q 769 856 769 921 q 646 759 769 759 q 607 889 646 841 q 492 936 568 936 q 356 889 409 936 q 303 761 303 841 q 331 658 303 701 q 475 548 359 615 q 634 421 585 484 q 683 277 683 358 q 586 63 683 140 q 318 -14 490 -14 q 93 41 176 -14 q 10 184 10 97 q 40 261 10 232 q 117 289 70 289 "},"õ":{"x_min":60,"x_max":757,"ha":798,"o":"m 474 758 q 667 684 596 758 q 738 470 738 610 q 624 135 738 285 q 326 -14 511 -14 q 130 61 201 -14 q 60 272 60 137 q 174 609 60 460 q 474 758 288 758 m 341 56 q 526 192 457 56 q 594 494 594 328 q 458 687 594 687 q 273 551 343 687 q 203 247 203 414 q 341 56 203 56 m 694 1006 l 757 1006 q 576 842 708 842 q 462 886 521 842 q 376 929 401 929 q 293 856 317 929 l 231 856 q 412 1020 279 1020 q 527 976 468 1020 q 611 932 586 932 q 694 1006 671 932 "},",":{"x_min":-39,"x_max":212,"ha":347,"o":"m -39 -202 l -33 -143 q 107 -27 107 -111 q 63 25 107 -2 q 18 96 18 54 q 41 155 18 133 q 104 178 65 178 q 181 147 150 178 q 212 64 212 116 q 147 -107 212 -37 q -39 -202 83 -177 "},"d":{"x_min":60,"x_max":808,"ha":804,"o":"m 506 209 l 498 209 q 238 -14 398 -14 q 107 52 154 -14 q 60 239 60 119 q 178 594 60 431 q 473 758 297 758 q 609 724 551 758 q 624 802 620 788 l 638 869 q 647 931 647 916 q 550 996 647 996 l 540 996 l 552 1055 l 808 1055 l 646 298 q 626 144 626 202 q 671 73 626 73 q 772 109 711 73 l 797 68 q 601 -14 697 -14 q 492 101 492 -14 q 506 209 492 145 m 585 645 q 481 695 554 695 q 283 544 363 695 q 203 234 203 393 q 290 73 203 73 q 434 175 358 73 q 534 399 509 278 l 585 645 "},"\"":{"x_min":182,"x_max":618,"ha":567,"o":"m 470 992 l 618 992 l 507 666 l 443 666 l 470 992 m 209 992 l 357 992 l 245 666 l 182 666 l 209 992 "},"˙":{"x_min":233,"x_max":394.40625,"ha":423,"o":"m 310 884 q 233 960 233 884 q 255 1031 233 1004 q 316 1058 278 1058 q 394 981 394 1058 q 371 908 394 933 q 310 884 347 884 "},"ê":{"x_min":60,"x_max":673,"ha":685,"o":"m 556 173 q 571 138 571 164 q 505 34 571 82 q 330 -14 440 -14 q 134 62 209 -14 q 60 272 60 139 q 177 606 60 454 q 473 758 294 758 q 610 716 562 758 q 659 599 659 674 q 541 404 659 487 q 254 321 424 321 l 231 321 q 205 322 218 321 q 203 263 203 303 q 356 73 203 73 q 556 173 475 73 m 218 383 l 232 383 q 435 444 355 383 q 515 601 515 504 q 434 695 515 695 q 308 609 367 695 q 218 383 250 524 m 263 860 q 446 1064 389 984 l 578 1064 q 673 860 598 984 l 668 842 l 620 842 q 496 966 555 886 q 318 842 394 880 l 259 842 l 263 860 "},"ч":{"x_min":52.75,"x_max":819.421875,"ha":846,"o":"m 778 745 l 677 280 q 660 140 660 199 q 710 73 660 73 q 794 104 744 73 l 819 63 q 643 -14 730 -14 q 553 23 586 -14 q 521 117 521 60 q 536 241 521 169 l 557 344 q 396 269 444 282 q 295 256 348 256 q 173 299 220 256 q 126 418 126 343 q 133 473 126 439 l 152 558 q 161 620 161 597 q 63 686 161 686 l 52 686 l 64 745 l 322 745 l 267 493 q 255 416 255 437 q 337 347 255 347 q 571 411 442 347 l 641 745 l 778 745 "},"Â":{"x_min":-77.84375,"x_max":912.375,"ha":979,"o":"m 277 332 l 193 186 q 167 108 167 139 q 244 58 167 58 l 276 58 l 265 0 l -77 0 l -66 58 l -39 58 q 22 77 -2 58 q 89 166 47 97 l 572 992 l 680 992 l 812 132 q 835 73 818 88 q 894 58 852 58 l 912 58 l 900 0 l 523 0 l 533 58 l 566 58 q 666 128 666 58 q 663 176 666 157 l 640 332 l 277 332 m 597 644 q 574 864 576 792 q 466 657 542 789 l 318 402 l 631 402 l 597 644 m 418 1089 q 601 1293 544 1213 l 733 1293 q 828 1089 753 1213 l 823 1071 l 775 1071 q 651 1195 710 1115 q 473 1071 549 1109 l 414 1071 l 418 1089 "},"Í":{"x_min":-29.484375,"x_max":619,"ha":510,"o":"m 584 992 l 572 933 l 553 933 q 458 908 487 933 q 418 833 428 883 l 275 152 q 268 113 268 123 q 369 58 268 58 l 386 58 l 374 0 l -29 0 l -18 58 l 0 58 q 136 158 114 58 l 280 839 q 285 878 285 865 q 185 933 285 933 l 167 933 l 180 992 l 584 992 m 322 1089 q 470 1293 401 1180 l 619 1293 l 614 1278 q 373 1071 508 1154 l 318 1071 l 322 1089 "},"´":{"x_min":340,"x_max":641,"ha":802,"o":"m 344 860 q 492 1064 423 951 l 641 1064 l 636 1049 q 395 842 530 925 l 340 842 l 344 860 "},"Ú":{"x_min":134,"x_max":1105.234375,"ha":1014,"o":"m 139 933 l 151 992 l 555 992 l 545 933 l 526 933 q 431 908 461 933 q 390 833 401 884 l 286 343 q 269 211 269 262 q 469 61 269 61 q 647 113 581 61 q 739 286 713 165 l 857 839 q 862 877 862 864 q 762 933 862 933 l 744 933 l 756 992 l 1105 992 l 1094 933 l 1076 933 q 981 908 1010 933 q 939 833 951 884 l 823 283 q 449 -14 760 -14 q 214 48 295 -14 q 134 226 134 110 q 148 349 134 282 l 252 839 q 257 877 257 865 q 157 933 257 933 l 139 933 m 586 1089 q 734 1293 665 1180 l 883 1293 l 878 1278 q 637 1071 772 1154 l 582 1071 l 586 1089 "},"Ý":{"x_min":107.546875,"x_max":999,"ha":868,"o":"m 494 992 l 482 933 l 412 933 q 355 896 355 933 q 374 815 355 869 l 436 629 q 473 462 469 530 q 577 608 487 488 l 710 785 q 760 897 760 852 q 694 933 760 933 l 642 933 l 655 992 l 999 992 l 986 933 l 959 933 q 907 912 933 933 q 833 828 881 890 l 510 404 l 455 152 q 450 113 450 127 q 550 58 450 58 l 582 58 l 569 0 l 137 0 l 150 58 l 181 58 q 278 82 251 58 q 315 151 306 106 l 369 407 l 208 860 q 177 919 193 904 q 125 933 162 933 l 107 933 l 119 992 l 494 992 m 522 1089 q 670 1293 601 1180 l 819 1293 l 814 1278 q 573 1071 708 1154 l 518 1071 l 522 1089 "},"И":{"x_min":-29.484375,"x_max":1190.3125,"ha":1116,"o":"m 1178 933 l 1159 933 q 1064 908 1093 933 q 1024 833 1035 883 l 880 152 q 874 113 874 126 q 975 58 874 58 l 992 58 l 980 0 l 576 0 l 587 58 l 605 58 q 742 158 720 58 l 852 690 l 281 189 l 275 152 q 268 113 268 119 q 369 58 268 58 l 386 58 l 374 0 l -29 0 l -18 58 l 0 58 q 95 83 66 58 q 136 158 125 109 l 280 839 q 285 878 285 865 q 185 933 285 933 l 167 933 l 180 992 l 584 992 l 572 933 l 553 933 q 458 908 487 933 q 418 833 428 883 l 307 302 l 877 802 l 886 839 q 891 878 891 862 q 791 933 891 933 l 773 933 l 786 992 l 1190 992 l 1178 933 "},"Љ":{"x_min":-65,"x_max":1161,"ha":1235,"o":"m 535 922 q 425 550 496 772 q 285 195 354 328 q 163 26 216 62 q 44 -10 111 -10 q -35 16 -6 -10 q -65 82 -65 42 q -41 148 -65 124 q 16 171 -18 171 q 69 106 16 106 q 321 477 194 106 q 448 896 448 848 q 346 933 448 933 l 325 933 l 338 992 l 1006 992 l 994 933 l 976 933 q 880 908 910 933 q 841 834 851 882 l 780 549 l 817 549 q 1161 316 1161 549 q 1058 82 1161 164 q 759 0 955 0 l 393 0 l 404 58 l 422 58 q 517 83 488 58 q 558 158 547 107 l 720 922 l 535 922 m 679 69 l 744 69 q 1009 303 1009 69 q 960 438 1009 397 q 812 479 911 479 l 765 479 l 679 69 "},"р":{"x_min":-10,"x_max":742,"ha":802,"o":"m 263 -275 l 251 -334 l -10 -334 l 174 547 q 186 620 186 605 q 89 686 186 686 l 78 686 l 91 745 l 337 745 l 303 559 l 310 559 q 565 758 411 758 q 696 693 650 758 q 742 507 742 629 q 625 153 742 320 q 327 -14 509 -14 q 191 17 248 -14 q 180 -49 185 -26 l 161 -133 q 148 -211 148 -191 q 245 -275 148 -275 l 263 -275 m 212 97 q 322 48 257 48 q 518 200 438 48 q 598 508 598 351 q 511 670 598 670 q 366 570 439 670 q 269 362 293 470 l 212 97 "},"т":{"x_min":61,"x_max":1221.421875,"ha":1245,"o":"m 624 0 l 492 0 q 509 144 492 31 q 539 312 527 257 l 571 456 q 591 586 591 540 q 527 669 591 669 q 368 563 450 669 q 265 355 286 457 l 190 0 l 61 0 l 177 558 q 185 620 185 597 q 88 686 185 686 l 77 686 l 90 745 l 347 745 l 309 569 l 323 569 q 576 757 435 757 q 725 603 725 757 q 722 569 725 586 l 736 569 q 989 757 849 757 q 1138 602 1138 757 q 1112 450 1138 558 l 1076 285 q 1059 140 1059 205 q 1107 73 1059 73 q 1196 105 1147 73 l 1221 64 q 1051 -14 1133 -14 q 960 23 994 -14 q 925 124 925 60 q 952 312 925 188 l 975 421 q 1005 586 1005 554 q 940 669 1005 669 q 793 577 869 669 q 686 385 717 486 l 664 286 q 639 137 655 248 q 624 0 624 27 "},"П":{"x_min":-29.484375,"x_max":1134.3125,"ha":1060,"o":"m 520 0 l 532 58 l 551 58 q 645 83 616 58 q 686 158 674 108 l 848 922 l 438 922 l 275 152 q 268 113 268 124 q 369 58 268 58 l 386 58 l 374 0 l -29 0 l -18 58 l 0 58 q 95 83 66 58 q 136 158 125 109 l 280 839 q 285 878 285 865 q 185 933 285 933 l 167 933 l 180 992 l 1134 992 l 1122 933 l 1103 933 q 1009 909 1038 933 q 969 833 980 884 l 825 152 q 818 113 818 124 q 919 58 818 58 l 936 58 l 924 0 l 520 0 "},"Ö":{"x_min":72,"x_max":988,"ha":1031,"o":"m 628 1007 q 888 906 789 1007 q 988 625 988 806 q 833 185 988 386 q 436 -16 678 -16 q 171 88 271 -16 q 72 369 72 192 q 228 807 72 608 q 628 1007 384 1007 m 444 59 q 727 251 617 59 q 836 661 836 443 q 778 861 836 791 q 617 931 721 931 q 333 738 443 931 q 223 329 223 546 q 283 129 223 199 q 444 59 342 59 m 527 1107 q 460 1176 460 1107 q 533 1264 460 1264 q 601 1194 601 1264 q 527 1107 601 1107 m 791 1107 q 724 1176 724 1107 q 797 1264 724 1264 q 865 1194 865 1264 q 791 1107 865 1107 "},"z":{"x_min":-1,"x_max":656,"ha":710,"o":"m 418 79 q 479 100 451 79 q 537 193 506 121 l 550 225 l 609 225 l 554 0 l -1 0 l 9 55 l 482 665 l 305 665 q 231 642 257 665 q 175 553 205 619 l 172 547 l 114 547 l 169 745 l 656 745 l 644 688 l 171 79 l 418 79 "},"ã":{"x_min":60,"x_max":797.625,"ha":804,"o":"m 507 209 l 498 209 q 238 -14 398 -14 q 107 52 154 -14 q 60 239 60 119 q 178 594 60 431 q 473 758 297 758 q 636 707 567 758 l 697 743 l 742 743 l 647 298 q 626 144 626 202 q 672 73 626 73 q 772 109 711 73 l 797 68 q 601 -14 697 -14 q 493 101 493 -14 q 507 209 493 145 m 586 645 q 481 695 554 695 q 283 544 363 695 q 203 234 203 393 q 290 73 203 73 q 434 175 358 73 q 534 399 510 278 l 586 645 m 695 1006 l 758 1006 q 577 842 709 842 q 463 886 522 842 q 377 929 402 929 q 294 856 318 929 l 232 856 q 413 1020 280 1020 q 528 976 469 1020 q 612 932 587 932 q 695 1006 672 932 "},"æ":{"x_min":60,"x_max":1103,"ha":1129,"o":"m 1002 173 q 1016 138 1016 163 q 950 33 1016 81 q 775 -14 885 -14 q 610 36 680 -14 q 518 185 541 87 q 269 -14 439 -14 q 117 59 174 -14 q 60 262 60 132 q 171 604 60 450 q 465 758 283 758 q 677 671 574 758 q 918 758 781 758 q 1054 716 1006 758 q 1103 599 1103 674 q 986 404 1103 487 q 703 321 870 321 l 679 321 q 655 322 667 321 q 652 263 652 305 q 804 73 652 73 q 1002 173 919 73 m 614 605 q 472 695 548 695 q 279 548 355 695 q 203 247 203 401 q 233 118 203 164 q 319 73 264 73 q 438 140 388 73 q 509 321 489 207 q 614 605 534 479 m 667 383 l 680 383 q 881 444 802 383 q 959 601 959 504 q 880 695 959 695 q 755 607 813 695 q 667 383 697 519 "},"É":{"x_min":-29.125,"x_max":880,"ha":865,"o":"m 257 69 l 524 69 q 682 183 642 69 l 703 242 l 776 242 l 715 0 l -29 0 l -18 58 l 0 58 q 98 83 70 58 q 135 151 125 107 l 279 833 q 283 867 283 852 q 264 916 283 899 q 185 933 245 933 l 168 933 l 180 992 l 880 992 l 835 749 l 763 749 l 767 791 q 770 829 770 824 q 671 922 770 922 l 438 922 l 359 553 l 694 553 l 680 483 l 345 483 l 257 69 m 491 1089 q 639 1293 570 1180 l 788 1293 l 783 1278 q 542 1071 677 1154 l 487 1071 l 491 1089 "},"и":{"x_min":79.734375,"x_max":809.40625,"ha":832,"o":"m 91 745 l 350 745 l 258 329 q 230 161 230 203 q 298 75 230 75 q 451 178 369 75 q 559 399 534 282 l 631 745 l 766 745 l 670 298 q 649 144 649 200 q 695 73 649 73 q 784 104 734 73 l 809 63 q 633 -14 721 -14 q 548 23 580 -14 q 516 118 516 60 q 523 200 516 154 l 512 200 q 377 32 437 76 q 244 -12 318 -12 q 96 141 96 -12 q 121 294 96 186 l 175 538 q 187 620 187 593 q 90 686 187 686 l 79 686 l 91 745 "},"~":{"x_min":87,"x_max":713,"ha":779,"o":"m 169 374 l 87 374 q 262 617 106 617 q 431 525 326 617 q 545 456 504 456 q 603 498 584 456 q 630 617 621 540 l 713 617 q 537 374 686 374 q 376 461 471 374 q 256 534 296 534 q 196 495 215 534 q 169 374 176 455 "},"³":{"x_min":54,"x_max":544,"ha":555,"o":"m 133 571 q 163 486 133 520 q 245 452 194 452 q 377 575 377 452 q 344 650 377 622 q 251 679 310 679 l 205 679 l 215 736 l 262 736 q 371 778 327 736 q 415 885 415 820 q 352 950 415 950 q 235 829 259 950 q 144 888 144 829 q 201 971 144 937 q 356 1006 258 1006 q 494 971 445 1006 q 544 879 544 936 q 366 715 544 750 l 365 708 q 505 580 505 689 q 432 439 505 490 q 235 389 359 389 q 100 418 147 389 q 54 496 54 447 q 133 571 54 571 "},"¡":{"x_min":16,"x_max":371,"ha":463,"o":"m 284 754 q 371 669 371 754 q 346 591 371 621 q 279 562 321 562 q 193 646 193 562 q 217 725 193 697 q 284 754 242 754 m 176 -249 l 16 -249 l 215 464 l 279 464 l 176 -249 "},"[":{"x_min":7,"x_max":579.421875,"ha":499,"o":"m 7 -178 l 269 1055 l 579 1055 l 567 995 l 507 995 q 412 970 442 995 q 372 895 383 946 l 175 -24 q 169 -62 169 -49 q 269 -118 169 -118 l 329 -118 l 316 -178 l 7 -178 "},"К":{"x_min":-29.484375,"x_max":1031,"ha":973,"o":"m -29 0 l -18 58 l 0 58 q 95 83 66 58 q 136 158 124 109 l 280 839 q 285 878 285 865 q 185 933 285 933 l 167 933 l 180 992 l 584 992 l 572 933 l 553 933 q 458 908 487 933 q 418 833 428 882 l 354 531 q 492 564 450 531 q 631 774 534 598 q 761 947 699 894 q 918 1000 824 1000 q 1031 917 1031 1000 q 943 819 1031 826 q 874 897 943 897 q 690 733 779 897 q 539 525 589 552 q 657 404 619 520 l 737 169 q 877 58 775 58 l 881 58 l 869 0 l 849 0 q 678 20 729 0 q 600 132 627 41 l 524 377 q 481 452 507 431 q 342 472 455 472 l 275 152 q 268 113 268 123 q 369 58 268 58 l 386 58 l 374 0 l -29 0 "},"%":{"x_min":92,"x_max":1183,"ha":1245,"o":"m 383 1004 q 569 783 569 1004 q 487 516 569 642 q 271 390 405 390 q 139 446 186 390 q 92 610 92 503 q 172 880 92 757 q 383 1004 252 1004 m 204 589 q 279 446 204 446 q 405 566 355 446 q 456 804 456 686 q 381 947 456 947 q 255 827 305 947 q 204 589 204 707 m 335 0 l 232 0 l 930 992 l 1027 992 l 335 0 m 997 603 q 1183 381 1183 603 q 1101 115 1183 241 q 885 -11 1019 -11 q 706 209 706 -11 q 786 479 706 356 q 997 603 866 603 m 818 188 q 893 45 818 45 q 1019 165 969 45 q 1070 403 1070 284 q 995 546 1070 546 q 869 426 919 546 q 818 188 818 307 "},"P":{"x_min":-28.140625,"x_max":852,"ha":861,"o":"m -28 0 l -15 58 l 2 58 q 96 83 67 58 q 136 158 125 108 l 280 839 q 285 878 285 865 q 185 933 285 933 l 167 933 l 180 992 l 536 992 q 769 922 686 992 q 852 723 852 852 q 745 475 852 565 q 427 386 639 386 l 324 386 l 275 152 q 268 113 268 124 q 369 58 268 58 l 414 58 l 402 0 l -28 0 m 339 455 l 411 455 q 700 722 700 455 q 501 922 700 922 l 438 922 l 339 455 "},"_":{"x_min":-126,"x_max":542,"ha":638,"o":"m 523 -197 l -126 -197 l -108 -115 l 542 -115 l 523 -197 "},"ñ":{"x_min":61,"x_max":808.421875,"ha":832,"o":"m 190 0 l 61 0 l 177 558 q 185 620 185 597 q 88 686 185 686 l 77 686 l 90 745 l 347 745 l 309 569 l 323 569 q 576 757 435 757 q 725 602 725 757 q 699 450 725 558 l 663 285 q 645 140 645 202 q 694 73 645 73 q 783 105 734 73 l 808 64 q 638 -14 717 -14 q 546 23 581 -14 q 512 124 512 60 q 539 312 512 188 l 571 456 q 591 586 591 540 q 527 669 591 669 q 369 564 450 669 q 265 355 288 459 l 190 0 m 709 1006 l 772 1006 q 591 842 723 842 q 477 886 536 842 q 391 929 416 929 q 308 856 332 929 l 246 856 q 427 1020 294 1020 q 542 976 483 1020 q 626 932 601 932 q 709 1006 686 932 "},"Æ":{"x_min":-86.234375,"x_max":1336,"ha":1321,"o":"m -86 0 l -66 58 l -40 58 q 23 77 -3 58 q 103 166 51 96 l 655 925 l 537 933 l 549 992 l 1336 992 l 1291 749 l 1219 749 q 1226 829 1226 796 q 1127 922 1226 922 l 894 922 l 815 553 l 1150 553 l 1135 483 l 801 483 l 712 69 l 980 69 q 1137 183 1097 69 l 1159 242 l 1232 242 l 1170 0 l 426 0 l 437 58 l 455 58 q 553 82 525 58 q 590 151 581 106 l 628 332 l 314 332 l 209 186 q 172 104 172 133 q 242 58 172 58 l 275 58 l 255 0 l -86 0 m 752 922 l 726 922 q 550 657 660 808 l 365 402 l 642 402 l 752 922 "},"₣":{"x_min":-49.125,"x_max":820,"ha":777,"o":"m -37 58 l -19 58 q 78 83 50 58 q 115 151 105 107 l 135 252 l 9 252 l 23 318 l 149 318 l 260 839 q 266 878 266 864 q 166 933 266 933 l 148 933 l 161 992 l 820 992 l 775 749 l 703 749 l 706 773 q 708 798 706 786 q 710 829 710 821 q 606 922 710 922 l 405 922 l 319 521 l 640 521 l 627 451 l 305 451 l 276 318 l 478 318 l 463 252 l 261 252 l 242 158 q 238 123 238 138 q 334 58 238 58 l 380 58 l 369 0 l -49 0 l -37 58 "},"ѓ":{"x_min":50,"x_max":707,"ha":692,"o":"m 537 171 q 552 127 552 158 q 490 23 552 60 q 305 -14 428 -14 q 116 35 183 -14 q 50 171 50 85 q 78 273 50 231 q 156 342 107 314 q 327 416 205 370 q 459 489 427 454 q 491 573 491 524 q 380 669 491 669 q 187 584 251 669 q 176 619 176 592 q 400 757 176 757 q 571 712 508 757 q 635 596 635 668 q 465 405 635 466 q 241 303 289 342 q 193 185 193 264 q 329 73 193 73 q 537 171 460 73 m 410 860 q 558 1064 489 951 l 707 1064 l 702 1049 q 461 842 596 925 l 406 842 l 410 860 "},"ы":{"x_min":64.046875,"x_max":1040.15625,"ha":1064,"o":"m 64 686 l 76 745 l 333 745 l 265 424 q 392 431 342 431 q 632 234 632 431 q 559 52 632 119 q 364 -14 487 -14 q 100 184 100 -14 q 116 324 100 248 l 164 558 q 172 620 172 598 q 75 686 172 686 l 64 686 m 251 355 q 233 204 233 267 q 360 56 233 56 q 461 105 425 56 q 498 230 498 153 q 366 360 498 360 q 251 355 317 360 m 723 686 l 735 745 l 984 745 l 890 298 q 869 144 869 198 q 915 73 869 73 q 1015 109 955 73 l 1040 68 q 852 -14 943 -14 q 768 23 800 -14 q 737 117 737 61 q 768 336 737 180 l 821 591 q 826 628 826 614 q 741 686 826 686 l 723 686 "},"ª":{"x_min":83,"x_max":576.734375,"ha":546,"o":"m 388 674 l 383 674 q 205 530 310 530 q 114 570 146 530 q 83 683 83 611 q 164 894 83 795 q 368 994 245 994 q 479 964 434 994 l 522 984 l 553 984 l 487 727 q 473 638 473 671 q 501 597 473 597 q 561 618 525 597 l 576 592 q 456 530 513 530 q 379 599 379 530 q 388 674 379 638 m 426 915 q 365 943 407 943 q 249 857 296 943 q 203 686 203 772 q 251 595 203 595 q 329 653 288 595 q 390 777 371 711 l 426 915 "},"ї":{"x_min":72,"x_max":477.75,"ha":423,"o":"m 86 686 l 98 745 l 347 745 l 253 298 q 232 144 232 198 q 278 73 232 73 q 378 109 318 73 l 403 68 q 215 -14 306 -14 q 131 23 163 -14 q 100 117 100 60 q 131 336 100 180 l 184 591 q 189 628 189 614 q 104 686 189 686 l 86 686 m 139 878 q 72 947 72 878 q 145 1035 72 1035 q 213 965 213 1035 q 139 878 213 878 m 403 878 q 336 947 336 878 q 409 1035 336 1035 q 477 965 477 1035 q 403 878 477 878 "},"T":{"x_min":105.921875,"x_max":946.25,"ha":851,"o":"m 445 152 q 440 113 440 126 q 540 58 440 58 l 572 58 l 559 0 l 127 0 l 140 58 l 172 58 q 269 82 242 58 q 306 151 296 106 l 469 922 l 336 922 q 197 808 237 922 l 177 749 l 105 749 l 164 992 l 946 992 l 901 749 l 829 749 q 836 833 836 803 q 744 922 836 922 l 609 922 l 445 152 "},"Њ":{"x_min":-29.484375,"x_max":1274,"ha":1348,"o":"m 1119 992 l 1107 933 l 1089 933 q 993 908 1022 933 q 954 833 964 883 l 893 548 l 930 548 q 1274 316 1274 548 q 1171 82 1274 164 q 872 0 1068 0 l 506 0 l 517 58 l 535 58 q 630 83 601 58 q 671 158 660 107 l 739 483 l 344 483 l 275 152 q 268 113 268 123 q 369 58 268 58 l 386 58 l 374 0 l -29 0 l -18 58 l 0 58 q 95 83 66 58 q 136 158 125 109 l 280 839 q 285 878 285 865 q 185 933 285 933 l 167 933 l 180 992 l 584 992 l 572 933 l 553 933 q 458 908 487 933 q 418 833 428 883 l 358 553 l 754 553 l 815 839 q 820 878 820 865 q 721 933 820 933 l 702 933 l 715 992 l 1119 992 m 791 69 l 857 69 q 1122 306 1122 69 q 1074 442 1122 400 q 926 483 1026 483 l 879 483 l 791 69 "},"є":{"x_min":60,"x_max":676.53125,"ha":684,"o":"m 556 173 q 571 138 571 164 q 505 34 571 82 q 330 -14 440 -14 q 134 62 209 -14 q 60 272 60 139 q 177 606 60 454 q 473 758 294 758 q 622 719 569 758 q 676 624 676 681 q 642 554 676 582 q 552 527 609 527 q 524 649 552 602 q 445 695 495 695 q 319 619 377 695 q 225 413 260 543 l 544 413 l 528 342 l 208 342 q 203 264 203 309 q 356 73 203 73 q 556 173 477 73 "},"Þ":{"x_min":-28.140625,"x_max":815,"ha":839,"o":"m -28 0 l -15 58 l 2 58 q 96 83 67 58 q 136 158 125 108 l 280 839 q 285 878 285 865 q 185 933 285 933 l 167 933 l 180 992 l 598 992 l 585 933 l 553 933 q 456 907 483 933 q 418 834 428 881 l 416 820 l 498 820 q 731 750 648 820 q 815 551 815 680 q 708 303 815 393 q 389 214 601 214 l 287 214 l 275 152 q 268 114 268 122 q 369 58 268 58 l 401 58 l 388 0 l -28 0 m 301 283 l 374 283 q 663 550 663 283 q 463 750 663 750 l 400 750 l 301 283 "},"j":{"x_min":-194.984375,"x_max":395,"ha":404,"o":"m 311 883 q 234 959 234 883 q 256 1030 234 1003 q 317 1057 279 1057 q 395 980 395 1057 q 371 907 395 932 q 311 883 348 883 m -194 -323 l -182 -262 q -118 -271 -147 -271 q -8 -208 -48 -271 q 58 -10 30 -145 l 185 591 q 190 628 190 614 q 105 686 190 686 l 87 686 l 99 745 l 348 745 l 188 -10 q 83 -255 153 -176 q -114 -334 13 -334 q -194 -323 -153 -334 "},"1":{"x_min":52.578125,"x_max":591.078125,"ha":777,"o":"m 591 997 l 412 152 q 406 113 406 126 q 506 58 406 58 l 581 58 l 569 0 l 52 0 l 63 58 l 137 58 q 232 83 203 58 q 273 158 262 107 l 381 669 q 433 887 405 780 l 427 887 q 297 772 340 801 q 218 743 254 743 q 162 817 162 743 q 389 924 257 840 l 502 997 l 591 997 "},"ћ":{"x_min":61,"x_max":807.84375,"ha":832,"o":"m 313 541 q 570 729 425 729 q 719 574 719 729 q 702 459 719 536 q 693 422 697 439 l 663 285 q 645 140 645 203 q 693 73 645 73 q 782 105 733 73 l 807 64 q 638 -14 716 -14 q 546 23 580 -14 q 512 124 512 60 q 538 312 512 188 l 565 428 q 585 558 585 512 q 521 641 585 641 q 363 535 444 641 q 259 327 281 429 l 190 0 l 61 0 l 233 823 l 108 823 l 120 889 l 247 889 q 254 931 254 920 q 156 996 254 996 l 145 996 l 157 1055 l 413 1055 l 378 889 l 615 889 l 603 823 l 364 823 l 359 800 q 298 541 324 631 l 313 541 "},"<":{"x_min":102,"x_max":698,"ha":777,"o":"m 102 471 l 102 520 l 698 841 l 698 748 l 230 495 l 698 244 l 698 152 l 102 471 "},"Ц":{"x_min":-26.78125,"x_max":1136.96875,"ha":1060,"o":"m -13 58 l 2 58 q 97 83 68 58 q 136 152 125 107 l 283 839 q 288 878 288 864 q 188 933 288 933 l 170 933 l 182 992 l 587 992 l 574 933 l 556 933 q 461 909 492 933 q 420 833 431 884 l 259 69 l 669 69 l 833 839 q 838 878 838 865 q 738 933 838 933 l 720 933 l 732 992 l 1136 992 l 1124 933 l 1106 933 q 1012 910 1041 933 q 973 840 984 888 l 826 152 q 820 113 820 124 q 903 58 820 61 l 952 58 l 877 -292 l 813 -292 q 828 -173 828 -224 q 662 0 828 0 l -26 0 l -13 58 "},"t":{"x_min":95.53125,"x_max":516,"ha":511,"o":"m 417 104 l 440 52 q 254 -14 347 -14 q 103 148 103 -14 q 116 265 103 200 l 201 665 l 95 665 l 108 721 q 320 916 244 721 l 384 916 l 348 745 l 516 745 l 499 665 l 331 665 l 247 269 q 230 149 230 189 q 304 73 230 73 q 417 104 360 73 "},"¬":{"x_min":102,"x_max":698,"ha":777,"o":"m 698 538 l 698 171 l 615 171 l 615 455 l 102 455 l 102 538 l 698 538 "},"ù":{"x_min":79.734375,"x_max":809.40625,"ha":832,"o":"m 91 745 l 350 745 l 258 329 q 230 161 230 203 q 298 75 230 75 q 451 178 369 75 q 559 399 534 282 l 631 745 l 766 745 l 670 298 q 649 144 649 200 q 695 73 649 73 q 784 104 734 73 l 809 63 q 633 -14 721 -14 q 548 23 580 -14 q 516 118 516 60 q 523 200 516 154 l 512 200 q 377 32 437 76 q 244 -12 318 -12 q 96 141 96 -12 q 121 294 96 186 l 175 538 q 187 620 187 593 q 90 686 187 686 l 79 686 l 91 745 m 509 842 q 330 1049 404 943 l 334 1064 l 473 1064 q 566 860 513 959 l 561 842 l 509 842 "},"Ф":{"x_min":50,"x_max":1039,"ha":1063,"o":"m 546 839 q 551 877 551 865 q 449 933 551 933 l 431 933 l 443 992 l 844 992 l 832 933 l 816 933 q 718 908 747 933 q 679 833 690 884 l 673 806 l 717 806 q 954 735 869 806 q 1039 537 1039 665 q 929 290 1039 380 q 609 200 820 200 l 544 200 l 535 152 q 529 113 529 122 q 632 58 529 58 l 647 58 l 635 0 l 235 0 l 247 58 l 265 58 q 401 157 380 58 l 410 200 l 364 200 q 132 270 214 200 q 50 468 50 340 q 155 716 50 626 q 472 806 261 806 l 539 806 l 546 839 m 524 736 l 488 736 q 201 467 201 736 q 398 266 201 266 l 425 266 l 524 736 m 558 265 l 593 265 q 887 534 887 265 q 683 735 887 735 l 658 735 l 558 265 "},"ï":{"x_min":72,"x_max":477.75,"ha":423,"o":"m 86 686 l 98 745 l 347 745 l 253 298 q 232 144 232 198 q 278 73 232 73 q 378 109 318 73 l 403 68 q 215 -14 306 -14 q 131 23 163 -14 q 100 117 100 60 q 131 336 100 180 l 184 591 q 189 628 189 614 q 104 686 189 686 l 86 686 m 139 878 q 72 947 72 878 q 145 1035 72 1035 q 213 965 213 1035 q 139 878 213 878 m 403 878 q 336 947 336 878 q 409 1035 336 1035 q 477 965 477 1035 q 403 878 477 878 "},"Ò":{"x_min":72,"x_max":988,"ha":1031,"o":"m 628 1007 q 888 906 789 1007 q 988 625 988 806 q 833 185 988 386 q 436 -16 678 -16 q 171 88 271 -16 q 72 369 72 192 q 228 807 72 608 q 628 1007 384 1007 m 444 59 q 727 251 617 59 q 836 661 836 443 q 778 861 836 791 q 617 931 721 931 q 333 738 443 931 q 223 329 223 546 q 283 129 223 199 q 444 59 342 59 m 694 1071 q 515 1278 589 1172 l 519 1293 l 658 1293 q 751 1089 698 1188 l 746 1071 l 694 1071 "},"О":{"x_min":72,"x_max":988,"ha":1031,"o":"m 628 1007 q 888 906 789 1007 q 988 625 988 806 q 833 185 988 386 q 436 -16 678 -16 q 171 88 271 -16 q 72 369 72 192 q 228 807 72 608 q 628 1007 384 1007 m 444 59 q 727 251 617 59 q 836 661 836 443 q 778 861 836 791 q 617 931 721 931 q 333 738 443 931 q 223 329 223 546 q 283 129 223 199 q 444 59 342 59 "},"&":{"x_min":49,"x_max":1045,"ha":1031,"o":"m 744 0 l 660 115 q 353 -14 535 -14 q 129 56 209 -14 q 49 245 49 127 q 114 427 49 353 q 341 562 179 502 q 274 766 274 675 q 349 943 274 881 q 570 1006 425 1006 q 743 957 682 1006 q 805 825 805 908 q 754 679 805 735 q 501 551 703 624 l 696 284 q 783 530 755 396 l 794 585 l 1045 585 l 1032 526 l 1019 526 q 919 505 950 526 q 874 465 888 485 q 805 330 860 446 q 744 221 778 275 l 819 116 q 956 58 862 58 l 968 58 l 956 0 l 744 0 m 463 607 q 629 695 580 651 q 678 815 678 740 q 645 903 678 870 q 560 937 613 937 q 407 776 407 937 q 463 607 407 699 m 617 175 l 381 502 q 229 397 272 453 q 186 248 186 341 q 234 115 186 167 q 367 63 283 63 q 617 175 511 63 "},"˝":{"x_min":131,"x_max":683,"ha":802,"o":"m 131 842 l 135 860 q 283 1064 211 950 l 432 1064 l 427 1049 q 192 842 333 942 l 131 842 m 381 842 l 385 860 q 533 1064 457 942 l 683 1064 l 678 1049 q 597 968 675 1040 q 442 842 518 895 l 381 842 "},"I":{"x_min":-29.484375,"x_max":584.296875,"ha":510,"o":"m 584 992 l 572 933 l 553 933 q 458 908 487 933 q 418 833 428 883 l 275 152 q 268 113 268 123 q 369 58 268 58 l 386 58 l 374 0 l -29 0 l -18 58 l 0 58 q 136 158 114 58 l 280 839 q 285 878 285 865 q 185 933 285 933 l 167 933 l 180 992 l 584 992 "},"G":{"x_min":72,"x_max":970.375,"ha":992,"o":"m 970 457 l 957 398 l 952 398 q 870 373 896 398 q 834 298 844 349 l 781 49 q 466 -14 633 -14 q 174 83 276 -14 q 72 357 72 180 q 241 820 72 634 q 669 1006 411 1006 q 885 963 808 1006 q 963 856 963 921 q 921 775 963 804 q 815 746 880 746 q 770 882 815 834 q 640 930 724 930 q 346 752 468 930 q 223 333 223 574 q 492 61 223 61 q 648 81 570 61 l 695 303 q 700 342 700 329 q 600 398 700 398 l 587 398 l 600 457 l 970 457 "},"`":{"x_min":383,"x_max":619,"ha":802,"o":"m 562 842 q 383 1049 457 943 l 387 1064 l 526 1064 q 619 860 566 959 l 614 842 l 562 842 "},"·":{"x_min":128,"x_max":306,"ha":397,"o":"m 214 399 q 128 483 128 399 q 152 560 128 531 q 219 590 177 590 q 306 505 306 590 q 281 427 306 455 q 214 399 256 399 "},"¿":{"x_min":1,"x_max":545,"ha":695,"o":"m 452 753 q 538 668 538 753 q 512 590 538 620 q 445 561 487 561 q 382 584 405 561 q 360 645 360 607 q 385 724 360 696 q 452 753 410 753 m 343 301 l 377 463 l 462 463 l 419 257 q 137 -44 137 154 q 174 -153 137 -112 q 271 -194 210 -194 q 444 2 416 -194 q 545 -80 545 2 q 467 -210 545 -157 q 263 -264 389 -264 q 1 -33 1 -264 q 343 301 1 177 "},"ý":{"x_min":-225.40625,"x_max":690,"ha":733,"o":"m 111 612 q 77 670 98 653 q 15 686 56 686 l 1 686 l 11 745 l 214 745 l 323 369 q 381 118 373 195 l 385 118 q 573 579 573 403 q 504 654 573 654 q 531 729 504 701 q 595 757 559 757 q 690 640 690 757 q 502 169 690 472 q 202 -234 315 -134 q -94 -334 89 -334 q -225 -308 -167 -334 l -204 -239 q -95 -254 -155 -254 q 294 -1 102 -254 l 111 612 m 361 860 q 509 1064 440 951 l 658 1064 l 653 1049 q 412 842 547 925 l 357 842 l 361 860 "},"Ђ":{"x_min":99.625,"x_max":988,"ha":1061,"o":"m 505 568 q 724 610 627 610 q 988 388 988 610 q 933 124 988 256 q 693 -7 878 -7 q 584 8 621 -7 l 602 74 q 680 62 640 62 q 785 107 752 62 q 834 240 818 151 q 851 380 851 328 q 693 519 851 519 q 489 485 594 519 l 417 152 q 412 113 412 127 q 512 58 412 58 l 530 58 l 518 0 l 99 0 l 112 58 l 144 58 q 241 82 214 58 q 278 151 268 106 l 441 922 l 336 922 q 197 808 237 922 l 177 749 l 105 749 l 164 992 l 890 992 l 845 749 l 773 749 q 780 833 780 803 q 689 922 780 922 l 581 922 l 505 568 "},"º":{"x_min":93,"x_max":567,"ha":551,"o":"m 284 529 q 143 575 194 529 q 93 702 93 622 q 172 904 93 812 q 377 996 251 996 q 516 950 465 996 q 567 825 567 905 q 489 621 567 714 q 284 529 411 529 m 368 940 q 258 859 301 940 q 215 687 215 778 q 284 584 215 584 q 394 665 352 584 q 436 841 436 745 q 368 940 436 940 "},"я":{"x_min":3,"x_max":783.421875,"ha":819,"o":"m 440 335 q 361 301 389 335 q 299 185 333 267 q 210 33 257 77 q 90 -10 163 -10 q 26 17 49 -10 q 3 82 3 44 q 25 146 3 121 q 80 171 47 171 q 95 126 80 146 q 135 106 110 106 q 188 133 164 106 q 255 259 212 160 q 326 345 287 328 q 190 416 239 364 q 142 537 142 467 q 458 750 142 750 q 734 715 579 750 l 641 280 q 624 140 624 197 q 673 73 624 73 q 758 104 708 73 l 783 63 q 607 -14 695 -14 q 517 23 550 -14 q 485 117 485 60 q 499 241 485 172 l 519 335 l 440 335 m 590 666 q 460 687 523 687 q 272 530 272 687 q 315 431 272 469 q 418 393 358 393 l 533 393 l 590 666 "},"Ё":{"x_min":-29.125,"x_max":880,"ha":865,"o":"m 257 69 l 524 69 q 682 183 642 69 l 703 242 l 776 242 l 715 0 l -29 0 l -18 58 l 0 58 q 98 83 70 58 q 135 151 125 107 l 279 833 q 283 867 283 852 q 264 916 283 899 q 185 933 245 933 l 168 933 l 180 992 l 880 992 l 835 749 l 763 749 l 767 791 q 770 829 770 824 q 671 922 770 922 l 438 922 l 359 553 l 694 553 l 680 483 l 345 483 l 257 69 m 434 1107 q 367 1176 367 1107 q 440 1264 367 1264 q 508 1194 508 1264 q 434 1107 508 1107 m 698 1107 q 631 1176 631 1107 q 704 1264 631 1264 q 772 1194 772 1264 q 698 1107 772 1107 "},";":{"x_min":25,"x_max":350,"ha":397,"o":"m 258 559 q 172 643 172 559 q 196 721 172 691 q 263 751 221 751 q 350 666 350 751 q 325 587 350 615 q 258 559 300 559 m 25 -202 l 30 -143 q 172 -27 172 -111 q 127 25 172 -2 q 82 96 82 54 q 105 155 82 133 q 168 178 129 178 q 246 146 215 178 q 277 64 277 115 q 211 -107 277 -38 q 25 -202 145 -177 "},"Г":{"x_min":-28.140625,"x_max":871,"ha":779,"o":"m 402 0 l -28 0 l -15 58 l 1 58 q 136 158 114 58 l 279 833 q 285 878 285 865 q 185 933 285 933 l 167 933 l 180 992 l 871 992 l 828 749 l 755 749 q 762 829 762 808 q 734 903 762 883 q 648 922 706 922 l 438 922 l 275 152 q 268 113 268 124 q 369 58 268 58 l 414 58 l 402 0 "},"6":{"x_min":83,"x_max":771.484375,"ha":777,"o":"m 243 530 q 448 603 347 603 q 621 536 559 603 q 684 359 684 470 q 592 91 684 197 q 344 -14 501 -14 q 154 75 226 -14 q 83 321 83 164 q 217 804 83 602 q 558 1006 352 1006 q 714 970 657 1006 q 771 880 771 934 q 650 776 771 776 q 626 903 650 869 q 555 936 602 936 q 243 530 346 936 m 228 453 q 209 271 209 341 q 351 62 209 62 q 489 144 435 62 q 543 352 543 226 q 419 533 543 533 q 228 453 327 533 "},"Ь":{"x_min":-29.484375,"x_max":793,"ha":851,"o":"m -18 58 l 22 58 q 88 79 52 58 q 136 158 123 99 l 280 839 q 285 878 285 865 q 185 933 285 933 l 167 933 l 180 992 l 584 992 l 572 933 l 553 933 q 457 906 485 933 q 416 825 428 879 l 357 549 l 451 549 q 793 316 793 549 q 690 82 793 165 q 393 0 588 0 l -29 0 l -18 58 m 256 69 l 376 69 q 641 303 641 69 q 593 438 641 397 q 445 479 545 479 l 343 479 l 256 69 "},"n":{"x_min":61,"x_max":808.421875,"ha":832,"o":"m 190 0 l 61 0 l 177 558 q 185 620 185 597 q 88 686 185 686 l 77 686 l 90 745 l 347 745 l 309 569 l 323 569 q 576 757 435 757 q 725 602 725 757 q 699 450 725 558 l 663 285 q 645 140 645 202 q 694 73 645 73 q 783 105 734 73 l 808 64 q 638 -14 717 -14 q 546 23 581 -14 q 512 124 512 60 q 539 312 512 188 l 571 456 q 591 586 591 540 q 527 669 591 669 q 369 564 450 669 q 265 355 288 459 l 190 0 "},"﻿":{"x_min":0,"x_max":0,"ha":0},"¤":{"x_min":99.234375,"x_max":696.734375,"ha":777,"o":"m 191 645 l 99 737 l 157 796 l 248 704 q 398 753 315 753 q 545 704 476 753 l 638 797 l 696 737 l 605 645 q 654 497 654 578 q 605 348 654 415 l 696 257 l 639 198 l 546 290 q 398 243 476 243 q 249 290 314 243 l 157 198 l 99 257 l 190 348 q 144 497 144 415 q 191 645 144 581 m 398 319 q 523 372 471 319 q 576 497 576 424 q 524 624 576 571 q 398 676 472 676 q 273 624 325 676 q 222 497 222 571 q 273 372 222 424 q 398 319 325 319 "},"p":{"x_min":-10,"x_max":742,"ha":802,"o":"m 263 -275 l 251 -334 l -10 -334 l 174 547 q 186 620 186 605 q 89 686 186 686 l 78 686 l 91 745 l 337 745 l 303 559 l 310 559 q 565 758 411 758 q 696 693 650 758 q 742 507 742 629 q 625 153 742 320 q 327 -14 509 -14 q 191 17 248 -14 q 180 -49 185 -26 l 161 -133 q 148 -211 148 -191 q 245 -275 148 -275 l 263 -275 m 212 97 q 322 48 257 48 q 518 200 438 48 q 598 508 598 351 q 511 670 598 670 q 366 570 439 670 q 269 362 293 470 l 212 97 "},"Ю":{"x_min":-29.484375,"x_max":1411,"ha":1454,"o":"m 547 483 l 344 483 l 275 152 q 268 113 268 123 q 369 58 268 58 l 386 58 l 374 0 l -29 0 l -18 58 l 0 58 q 95 83 66 58 q 136 158 125 109 l 280 839 q 285 878 285 865 q 185 933 285 933 l 167 933 l 180 992 l 584 992 l 572 933 l 553 933 q 458 908 487 933 q 418 833 428 883 l 358 553 l 562 553 q 754 883 619 760 q 1068 1007 889 1007 q 1316 906 1221 1007 q 1411 625 1411 806 q 1263 185 1411 386 q 885 -16 1116 -16 q 633 87 729 -16 q 538 369 538 191 q 547 483 538 432 m 895 59 q 1157 251 1056 59 q 1259 661 1259 442 q 1206 861 1259 791 q 1056 931 1153 931 q 792 738 894 931 q 689 329 689 545 q 744 130 689 200 q 895 59 799 59 "},"S":{"x_min":10,"x_max":769,"ha":756,"o":"m 117 289 q 173 119 117 183 q 328 55 229 55 q 482 103 425 55 q 539 233 539 150 q 506 344 539 298 q 364 451 474 389 q 210 583 253 516 q 167 737 167 651 q 257 931 167 857 q 504 1006 348 1006 q 697 963 625 1006 q 769 856 769 921 q 646 759 769 759 q 607 889 646 841 q 492 936 568 936 q 356 889 409 936 q 303 761 303 841 q 331 658 303 701 q 475 548 359 615 q 634 421 585 484 q 683 277 683 358 q 586 63 683 140 q 318 -14 490 -14 q 93 41 176 -14 q 10 184 10 97 q 40 261 10 232 q 117 289 70 289 "},"/":{"x_min":-129,"x_max":529,"ha":400,"o":"m -41 -168 l -129 -168 l 441 1055 l 529 1055 l -41 -168 "},"ђ":{"x_min":61,"x_max":719,"ha":775,"o":"m 219 -323 l 231 -262 q 295 -271 265 -271 q 404 -207 364 -271 q 471 -11 444 -144 l 557 394 q 585 559 585 525 q 521 642 585 642 q 363 536 444 642 q 259 328 281 430 l 190 0 l 61 0 l 233 826 l 108 826 l 122 889 l 247 889 q 254 931 254 920 q 156 996 254 996 l 145 996 l 157 1055 l 413 1055 l 378 889 l 616 889 l 602 826 l 364 826 l 360 803 q 298 542 325 637 l 314 542 q 570 730 425 730 q 719 576 719 730 q 702 458 719 536 q 693 420 697 438 l 602 -11 q 497 -255 567 -176 q 299 -334 427 -334 q 219 -323 260 -334 "},"y":{"x_min":-225.40625,"x_max":690,"ha":733,"o":"m 111 612 q 77 670 98 653 q 15 686 56 686 l 1 686 l 11 745 l 214 745 l 323 369 q 381 118 373 195 l 385 118 q 573 579 573 403 q 504 654 573 654 q 531 729 504 701 q 595 757 559 757 q 690 640 690 757 q 502 169 690 472 q 202 -234 315 -134 q -94 -334 89 -334 q -225 -308 -167 -334 l -204 -239 q -95 -254 -155 -254 q 294 -1 102 -254 l 111 612 "},"g":{"x_min":-49,"x_max":831,"ha":773,"o":"m 611 713 q 761 812 676 812 q 831 748 831 812 q 748 662 831 662 q 710 712 748 712 q 641 680 682 712 q 672 573 672 637 q 584 360 672 457 q 354 263 497 263 q 310 265 322 263 q 210 176 210 225 q 281 134 210 141 l 415 120 q 631 -60 631 97 q 533 -262 631 -190 q 254 -334 435 -334 q -49 -153 -49 -334 q 11 -26 -49 -79 q 177 45 72 25 q 111 142 111 78 q 138 215 111 185 q 242 285 166 245 q 146 449 146 330 q 234 662 146 566 q 467 758 322 758 q 611 713 556 758 m 369 325 q 497 405 448 325 q 545 580 545 485 q 450 695 545 695 q 321 614 369 695 q 273 440 273 534 q 369 325 273 325 m 380 2 l 245 15 q 185 1 235 15 q 99 -50 135 -12 q 63 -144 63 -88 q 259 -263 63 -263 q 446 -218 381 -263 q 510 -98 510 -174 q 380 2 510 -9 "},"²":{"x_min":28,"x_max":522,"ha":555,"o":"m 28 397 l 34 438 l 250 616 q 362 735 325 678 q 399 869 399 792 q 330 950 399 950 q 257 914 288 950 q 218 818 226 877 q 152 836 176 818 q 129 885 129 855 q 186 971 129 937 q 340 1006 243 1006 q 473 969 424 1006 q 522 873 522 932 q 479 750 522 807 q 330 608 437 693 l 164 475 l 355 475 q 428 532 407 475 l 439 561 l 487 561 l 448 397 l 28 397 "},"ë":{"x_min":60,"x_max":682.75,"ha":685,"o":"m 556 173 q 571 138 571 164 q 505 34 571 82 q 330 -14 440 -14 q 134 62 209 -14 q 60 272 60 139 q 177 606 60 454 q 473 758 294 758 q 610 716 562 758 q 659 599 659 674 q 541 404 659 487 q 254 321 424 321 l 231 321 q 205 322 218 321 q 203 263 203 303 q 356 73 203 73 q 556 173 475 73 m 218 383 l 232 383 q 435 444 355 383 q 515 601 515 504 q 434 695 515 695 q 308 609 367 695 q 218 383 250 524 m 344 878 q 277 947 277 878 q 350 1035 277 1035 q 418 965 418 1035 q 344 878 418 878 m 608 878 q 541 947 541 878 q 614 1035 541 1035 q 682 965 682 1035 q 608 878 682 878 "},"б":{"x_min":69,"x_max":844.984375,"ha":806,"o":"m 783 1064 l 844 1067 q 778 930 825 965 q 505 870 730 895 q 287 798 352 853 q 184 567 223 743 l 194 567 q 311 678 235 637 q 470 720 387 720 q 671 641 595 720 q 748 427 748 562 q 634 114 748 243 q 341 -14 520 -14 q 141 83 213 -14 q 69 357 69 181 q 186 805 69 637 q 515 998 303 974 q 783 1064 762 1026 m 358 56 q 531 170 457 56 q 604 454 604 285 q 460 649 604 649 q 286 538 361 649 q 212 253 212 426 q 358 56 212 56 "},"у":{"x_min":-225.40625,"x_max":690,"ha":733,"o":"m 111 612 q 77 670 98 653 q 15 686 56 686 l 1 686 l 11 745 l 214 745 l 323 369 q 381 118 373 195 l 385 118 q 573 579 573 403 q 504 654 573 654 q 531 729 504 701 q 595 757 559 757 q 690 640 690 757 q 502 169 690 472 q 202 -234 315 -134 q -94 -334 89 -334 q -225 -308 -167 -334 l -204 -239 q -95 -254 -155 -254 q 294 -1 102 -254 l 111 612 "},"J":{"x_min":-214.921875,"x_max":577.921875,"ha":496,"o":"m 577 992 l 565 933 l 547 933 q 451 908 480 933 q 412 833 422 883 l 232 -10 q 115 -257 195 -181 q -101 -334 36 -334 q -214 -317 -163 -334 l -195 -252 q -105 -264 -161 -264 q 19 -205 -25 -264 q 93 -12 64 -145 l 273 839 q 279 878 279 867 q 179 933 279 933 l 161 933 l 173 992 l 577 992 "},"Ã":{"x_min":-77.84375,"x_max":912.375,"ha":979,"o":"m 277 332 l 193 186 q 167 108 167 139 q 244 58 167 58 l 276 58 l 265 0 l -77 0 l -66 58 l -39 58 q 22 77 -2 58 q 89 166 47 97 l 572 992 l 680 992 l 812 132 q 835 73 818 88 q 894 58 852 58 l 912 58 l 900 0 l 523 0 l 533 58 l 566 58 q 666 128 666 58 q 663 176 666 157 l 640 332 l 277 332 m 597 644 q 574 864 576 792 q 466 657 542 789 l 318 402 l 631 402 l 597 644 m 833 1235 l 896 1235 q 715 1071 847 1071 q 601 1115 660 1071 q 515 1158 540 1158 q 432 1085 456 1158 l 370 1085 q 551 1249 418 1249 q 666 1205 607 1249 q 750 1161 725 1161 q 833 1235 810 1161 "},"Ј":{"x_min":-214.921875,"x_max":577.921875,"ha":496,"o":"m 577 992 l 565 933 l 547 933 q 451 908 480 933 q 412 833 422 883 l 232 -10 q 115 -257 195 -181 q -101 -334 36 -334 q -214 -317 -163 -334 l -195 -252 q -105 -264 -161 -264 q 19 -205 -25 -264 q 93 -12 64 -145 l 273 839 q 279 878 279 867 q 179 933 279 933 l 161 933 l 173 992 l 577 992 "},"©":{"x_min":87,"x_max":1108,"ha":1174,"o":"m 597 1007 q 957 856 806 1007 q 1108 495 1108 706 q 958 135 1108 285 q 597 -14 808 -14 q 236 135 385 -14 q 87 495 87 285 q 236 856 87 706 q 597 1007 386 1007 m 596 61 q 904 189 776 61 q 1032 495 1032 317 q 904 803 1032 675 q 596 931 776 931 q 289 802 416 931 q 162 495 162 674 q 289 189 162 317 q 596 61 416 61 m 792 341 q 812 298 812 327 q 755 220 812 254 q 604 187 699 187 q 399 268 472 187 q 326 496 326 349 q 405 721 326 639 q 623 804 484 804 q 763 776 713 804 q 814 704 814 749 q 787 657 814 675 q 719 639 761 639 q 620 745 719 745 q 439 496 439 745 q 486 312 439 376 q 622 247 533 247 q 792 341 737 247 "},"˘":{"x_min":215,"x_max":614,"ha":802,"o":"m 215 1033 l 279 1033 q 400 937 290 937 q 550 1033 510 937 l 614 1033 q 531 892 591 943 q 390 842 471 842 q 215 1033 226 842 "},"ґ":{"x_min":61,"x_max":649,"ha":618,"o":"m 61 0 l 177 558 q 185 620 185 597 q 88 686 185 686 l 77 686 l 90 745 l 441 745 q 515 769 490 745 q 564 857 540 793 l 581 903 l 649 903 l 602 682 l 333 682 l 190 0 l 61 0 "},"D":{"x_min":-29.484375,"x_max":964,"ha":1007,"o":"m -18 58 l 0 58 q 136 158 114 58 l 280 839 q 285 878 285 865 q 185 933 285 933 l 167 933 l 180 992 l 569 992 q 861 893 759 992 q 964 614 964 795 q 812 174 964 348 q 408 0 661 0 l -29 0 l -18 58 m 377 69 q 695 223 578 69 q 812 629 812 377 q 548 922 812 922 l 438 922 l 256 69 l 377 69 "},"ÿ":{"x_min":-225.40625,"x_max":690,"ha":733,"o":"m 111 612 q 77 670 98 653 q 15 686 56 686 l 1 686 l 11 745 l 214 745 l 323 369 q 381 118 373 195 l 385 118 q 573 579 573 403 q 504 654 573 654 q 531 729 504 701 q 595 757 559 757 q 690 640 690 757 q 502 169 690 472 q 202 -234 315 -134 q -94 -334 89 -334 q -225 -308 -167 -334 l -204 -239 q -95 -254 -155 -254 q 294 -1 102 -254 l 111 612 m 279 878 q 212 947 212 878 q 285 1035 212 1035 q 353 965 353 1035 q 279 878 353 878 m 543 878 q 476 947 476 878 q 549 1035 476 1035 q 617 965 617 1035 q 543 878 617 878 "},"ц":{"x_min":79.734375,"x_max":810.765625,"ha":832,"o":"m 731 6 q 634 -14 673 -14 q 549 22 582 -14 q 516 118 516 58 q 523 200 516 154 l 512 200 q 377 32 437 76 q 244 -12 318 -12 q 96 141 96 -12 q 121 294 96 186 l 175 538 q 187 620 187 593 q 90 686 187 686 l 79 686 l 91 745 l 350 745 l 258 329 q 230 161 230 203 q 298 75 230 75 q 451 178 369 75 q 559 399 534 282 l 631 745 l 766 745 l 670 298 q 651 144 651 209 q 696 73 651 73 q 785 104 736 73 l 810 63 q 736 -224 778 -131 q 581 -317 693 -317 q 462 -295 515 -317 l 477 -241 q 532 -249 500 -249 q 650 -179 590 -249 q 731 6 710 -108 "},"Л":{"x_min":-65,"x_max":1049.3125,"ha":975,"o":"m 17 172 q 69 107 17 107 q 321 477 194 107 q 448 896 448 848 q 346 933 448 933 l 325 933 l 338 992 l 1049 992 l 1037 933 l 1018 933 q 923 908 953 933 q 884 833 894 884 l 740 152 q 733 113 733 124 q 834 58 733 58 l 851 58 l 839 0 l 435 0 l 446 58 l 464 58 q 601 158 579 58 l 761 922 l 536 922 q 425 549 496 771 q 285 196 353 327 q 163 27 216 64 q 44 -9 109 -9 q -35 16 -6 -9 q -65 83 -65 42 q -41 148 -65 125 q 17 172 -18 172 "},"$":{"x_min":33,"x_max":741,"ha":777,"o":"m 279 52 q 98 111 163 60 q 33 239 33 163 q 67 322 33 291 q 140 353 101 353 q 181 198 140 261 q 292 121 222 136 l 365 461 q 182 698 182 552 q 257 877 182 811 q 470 950 333 943 l 492 1055 l 562 1055 l 540 950 q 741 810 741 932 q 628 715 741 715 q 525 887 628 864 l 455 554 l 470 546 q 630 428 596 477 q 664 318 664 378 q 580 131 664 204 q 347 50 496 59 l 313 -109 l 244 -109 l 279 52 m 393 586 l 456 888 q 311 718 311 864 q 393 586 311 637 m 429 430 l 362 118 q 486 172 441 125 q 531 287 531 218 q 429 430 531 377 "},"w":{"x_min":51.875,"x_max":1109,"ha":1137,"o":"m 167 -12 l 157 585 q 137 661 156 635 q 65 687 119 687 l 51 687 l 70 745 l 279 745 q 283 111 283 451 l 289 111 q 598 731 470 429 l 714 737 q 743 101 743 371 l 752 101 q 939 376 865 240 q 1013 592 1013 512 q 953 675 1013 656 q 1035 758 965 758 q 1109 654 1109 758 q 761 1 1109 454 l 624 -13 l 603 587 q 310 4 539 437 l 167 -12 "},"\\":{"x_min":157,"x_max":297,"ha":400,"o":"m 157 1055 l 237 1055 l 297 -168 l 214 -168 l 157 1055 "},"о":{"x_min":60,"x_max":738,"ha":798,"o":"m 474 758 q 667 684 596 758 q 738 470 738 610 q 624 135 738 285 q 326 -14 511 -14 q 130 61 201 -14 q 60 272 60 137 q 174 609 60 460 q 474 758 288 758 m 341 56 q 526 192 457 56 q 594 494 594 328 q 458 687 594 687 q 273 551 343 687 q 203 247 203 414 q 341 56 203 56 "},"Д":{"x_min":-126,"x_max":1004.34375,"ha":947,"o":"m 34 69 q 365 606 263 379 q 467 893 467 833 q 449 923 467 912 q 356 933 430 933 l 352 933 l 365 992 l 1004 992 l 991 933 l 973 933 q 892 910 917 933 q 857 840 867 886 l 714 169 q 709 135 709 150 q 806 69 709 69 l 834 69 l 756 -292 l 693 -292 q 707 -172 707 -222 q 549 0 707 0 l 204 0 q -62 -292 0 0 l -126 -292 l -48 69 l 34 69 m 558 922 q 130 69 481 577 l 554 69 l 734 922 l 558 922 "},"Ì":{"x_min":-29.484375,"x_max":584.296875,"ha":510,"o":"m 584 992 l 572 933 l 553 933 q 458 908 487 933 q 418 833 428 883 l 275 152 q 268 113 268 123 q 369 58 268 58 l 386 58 l 374 0 l -29 0 l -18 58 l 0 58 q 136 158 114 58 l 280 839 q 285 878 285 865 q 185 933 285 933 l 167 933 l 180 992 l 584 992 m 411 1071 q 232 1278 306 1172 l 236 1293 l 375 1293 q 468 1089 415 1188 l 463 1071 l 411 1071 "},"Ç":{"x_min":72,"x_max":902,"ha":871,"o":"m 728 202 q 746 156 746 189 q 669 37 746 89 q 456 -14 591 -14 q 173 83 274 -14 q 72 357 72 180 q 236 813 72 621 q 644 1006 400 1006 q 834 964 766 1006 q 902 851 902 922 q 864 772 902 801 q 765 743 827 743 q 627 930 765 930 q 339 743 455 930 q 223 335 223 556 q 470 76 223 76 q 728 202 631 76 m 440 -47 q 521 -87 490 -54 q 552 -163 552 -119 q 493 -288 552 -243 q 330 -334 434 -334 q 227 -318 277 -334 l 241 -247 q 334 -258 289 -258 q 438 -173 438 -258 q 349 -95 438 -104 l 402 12 l 467 12 l 440 -47 "},"ъ":{"x_min":53,"x_max":783,"ha":843,"o":"m 457 686 q 279 681 344 681 q 193 657 223 681 q 139 568 164 634 l 120 522 l 53 522 l 110 745 l 504 745 l 548 700 q 387 424 453 580 l 425 426 q 515 431 472 431 q 783 234 783 431 q 702 52 783 118 q 483 -14 621 -14 q 213 212 213 -14 q 457 686 213 444 m 367 353 q 343 206 343 284 q 491 56 343 56 q 605 106 561 56 q 649 229 649 156 q 496 358 649 358 q 367 353 443 358 "},"C":{"x_min":72,"x_max":902,"ha":871,"o":"m 728 202 q 746 156 746 189 q 669 37 746 89 q 456 -14 591 -14 q 173 83 274 -14 q 72 357 72 180 q 236 813 72 621 q 644 1006 400 1006 q 834 964 766 1006 q 902 851 902 922 q 864 772 902 801 q 765 743 827 743 q 627 930 765 930 q 339 743 455 930 q 223 335 223 556 q 470 76 223 76 q 728 202 631 76 "},"!":{"x_min":83,"x_max":438,"ha":463,"o":"m 277 992 l 438 992 l 238 279 l 174 279 l 277 992 m 169 -11 q 83 73 83 -11 q 107 150 83 121 q 174 180 132 180 q 261 95 261 180 q 236 17 261 45 q 169 -11 211 -11 "},"ç":{"x_min":60,"x_max":676,"ha":676,"o":"m 556 173 q 571 138 571 164 q 505 34 571 82 q 330 -14 440 -14 q 134 62 209 -14 q 60 272 60 139 q 177 606 60 454 q 473 758 294 758 q 622 719 568 758 q 676 624 676 681 q 642 554 676 582 q 552 527 608 527 q 523 649 552 602 q 444 695 495 695 q 275 549 347 695 q 203 263 203 403 q 356 73 203 73 q 556 173 477 73 m 330 -47 q 411 -87 380 -54 q 442 -163 442 -119 q 383 -288 442 -243 q 220 -334 324 -334 q 117 -318 167 -334 l 131 -247 q 224 -258 179 -258 q 328 -173 328 -258 q 239 -95 328 -104 l 292 12 l 357 12 l 330 -47 "},"È":{"x_min":-29.125,"x_max":880,"ha":865,"o":"m 257 69 l 524 69 q 682 183 642 69 l 703 242 l 776 242 l 715 0 l -29 0 l -18 58 l 0 58 q 98 83 70 58 q 135 151 125 107 l 279 833 q 283 867 283 852 q 264 916 283 899 q 185 933 245 933 l 168 933 l 180 992 l 880 992 l 835 749 l 763 749 l 767 791 q 770 829 770 824 q 671 922 770 922 l 438 922 l 359 553 l 694 553 l 680 483 l 345 483 l 257 69 m 576 1071 q 397 1278 471 1172 l 401 1293 l 540 1293 q 633 1089 580 1188 l 628 1071 l 576 1071 "},"Й":{"x_min":-29.484375,"x_max":1190.3125,"ha":1116,"o":"m 1178 933 l 1159 933 q 1064 908 1093 933 q 1024 833 1035 883 l 880 152 q 874 113 874 126 q 975 58 874 58 l 992 58 l 980 0 l 576 0 l 587 58 l 605 58 q 742 158 720 58 l 852 690 l 281 189 l 275 152 q 268 113 268 119 q 369 58 268 58 l 386 58 l 374 0 l -29 0 l -18 58 l 0 58 q 95 83 66 58 q 136 158 125 109 l 280 839 q 285 878 285 865 q 185 933 285 933 l 167 933 l 180 992 l 584 992 l 572 933 l 553 933 q 458 908 487 933 q 418 833 428 883 l 307 302 l 877 802 l 886 839 q 891 878 891 862 q 791 933 891 933 l 773 933 l 786 992 l 1190 992 l 1178 933 m 504 1247 l 627 1279 q 618 1218 618 1249 q 704 1144 618 1144 q 969 1316 861 1144 l 1021 1283 q 683 1071 889 1071 q 497 1200 497 1071 q 504 1247 497 1225 "},"X":{"x_min":-68.296875,"x_max":1001.4375,"ha":917,"o":"m 988 933 l 976 933 q 908 913 938 933 q 818 829 878 892 l 556 539 l 723 132 q 818 58 753 58 l 836 58 l 824 0 l 449 0 l 461 58 l 477 58 q 542 72 518 58 q 566 107 566 86 q 539 203 566 136 l 449 424 l 242 193 q 186 95 186 131 q 268 58 186 58 l 272 58 l 260 0 l -68 0 l -56 58 l -50 58 q 30 82 -5 58 q 113 158 66 105 l 420 493 l 272 862 q 164 933 243 933 l 145 933 l 158 992 l 534 992 l 522 933 l 490 933 q 425 894 425 933 q 450 811 425 875 l 528 608 l 702 808 q 755 899 755 869 q 688 933 755 933 l 684 933 l 696 992 l 1001 992 l 988 933 "},"ô":{"x_min":60,"x_max":738,"ha":798,"o":"m 474 758 q 667 684 596 758 q 738 470 738 610 q 624 135 738 285 q 326 -14 511 -14 q 130 61 201 -14 q 60 272 60 137 q 174 609 60 460 q 474 758 288 758 m 341 56 q 526 192 457 56 q 594 494 594 328 q 458 687 594 687 q 273 551 343 687 q 203 247 203 414 q 341 56 203 56 m 271 860 q 454 1064 397 984 l 586 1064 q 681 860 606 984 l 676 842 l 628 842 q 504 966 563 886 q 326 842 402 880 l 267 842 l 271 860 "},"Б":{"x_min":-29.484375,"x_max":831,"ha":839,"o":"m 831 992 l 786 749 l 714 749 q 721 833 721 803 q 629 922 721 922 l 438 922 l 357 549 l 436 549 q 779 316 779 549 q 676 82 779 164 q 378 0 574 0 l -29 0 l -18 58 l 0 58 q 136 158 114 58 l 280 839 q 285 878 285 865 q 185 933 285 933 l 167 933 l 180 992 l 831 992 m 256 69 l 363 69 q 627 303 627 69 q 579 438 627 397 q 431 479 531 479 l 343 479 l 256 69 "},"г":{"x_min":50,"x_max":635,"ha":692,"o":"m 537 171 q 552 127 552 158 q 490 23 552 60 q 305 -14 428 -14 q 116 35 183 -14 q 50 171 50 85 q 78 273 50 231 q 156 342 107 314 q 327 416 205 370 q 459 489 427 454 q 491 573 491 524 q 380 669 491 669 q 187 584 251 669 q 176 619 176 592 q 400 757 176 757 q 571 712 508 757 q 635 596 635 668 q 465 405 635 466 q 241 303 289 342 q 193 185 193 264 q 329 73 193 73 q 537 171 460 73 "},"х":{"x_min":-28,"x_max":783,"ha":758,"o":"m -28 0 l -12 58 l 5 58 q 71 75 43 58 q 149 154 99 92 l 327 369 l 237 586 q 193 668 210 650 q 137 686 176 686 l 119 686 l 130 745 l 315 745 l 420 464 l 605 745 l 783 745 l 760 686 l 742 686 q 674 666 702 686 q 598 586 647 647 l 452 398 l 548 158 q 590 77 572 95 q 648 58 607 58 l 666 58 l 655 0 l 469 0 l 356 306 l 148 0 l -28 0 "},"}":{"x_min":87.359375,"x_max":543.125,"ha":595,"o":"m 87 -118 l 128 -118 q 242 27 242 -118 l 242 267 q 397 439 242 412 l 397 440 q 242 611 242 466 l 242 849 q 128 995 242 995 l 87 995 l 87 1055 l 178 1055 q 379 856 379 1055 l 379 614 q 543 469 379 472 l 543 409 q 379 262 379 404 l 379 21 q 326 -125 379 -73 q 178 -178 273 -178 l 87 -178 l 87 -118 "},"â":{"x_min":60,"x_max":797.625,"ha":804,"o":"m 507 209 l 498 209 q 238 -14 398 -14 q 107 52 154 -14 q 60 239 60 119 q 178 594 60 431 q 473 758 297 758 q 636 707 567 758 l 697 743 l 742 743 l 647 298 q 626 144 626 202 q 672 73 626 73 q 772 109 711 73 l 797 68 q 601 -14 697 -14 q 493 101 493 -14 q 507 209 493 145 m 586 645 q 481 695 554 695 q 283 544 363 695 q 203 234 203 393 q 290 73 203 73 q 434 175 358 73 q 534 399 510 278 l 586 645 m 278 860 q 461 1064 404 984 l 593 1064 q 688 860 613 984 l 683 842 l 635 842 q 511 966 570 886 q 333 842 409 880 l 274 842 l 278 860 "},"ø":{"x_min":7.09375,"x_max":798.359375,"ha":802,"o":"m 639 707 l 717 800 l 798 800 l 685 662 q 738 470 738 590 q 624 133 738 284 q 326 -17 511 -17 q 161 31 231 -17 l 89 -55 l 7 -55 l 117 76 q 60 273 60 151 q 174 609 60 460 q 474 758 288 758 q 639 707 575 758 m 203 187 l 570 625 q 457 687 536 687 q 271 551 342 687 q 200 247 200 414 q 203 187 200 203 m 590 551 l 225 115 q 340 53 257 53 q 525 190 455 53 q 594 494 594 327 q 590 551 594 523 "},"Ä":{"x_min":-77.84375,"x_max":912.375,"ha":979,"o":"m 277 332 l 193 186 q 167 108 167 139 q 244 58 167 58 l 276 58 l 265 0 l -77 0 l -66 58 l -39 58 q 22 77 -2 58 q 89 166 47 97 l 572 992 l 680 992 l 812 132 q 835 73 818 88 q 894 58 852 58 l 912 58 l 900 0 l 523 0 l 533 58 l 566 58 q 666 128 666 58 q 663 176 666 157 l 640 332 l 277 332 m 597 644 q 574 864 576 792 q 466 657 542 789 l 318 402 l 631 402 l 597 644 m 511 1107 q 444 1176 444 1107 q 517 1264 444 1264 q 585 1194 585 1264 q 511 1107 585 1107 m 775 1107 q 708 1176 708 1107 q 781 1264 708 1264 q 849 1194 849 1264 q 775 1107 849 1107 "},"Ч":{"x_min":119.609375,"x_max":1101.3125,"ha":1050,"o":"m 487 0 l 498 58 l 516 58 q 653 158 631 58 l 710 423 q 447 364 537 364 q 182 569 182 364 q 208 728 182 610 l 232 837 q 237 876 237 862 q 137 931 237 931 l 119 931 l 132 990 l 536 990 l 525 931 l 507 931 q 411 906 441 931 q 371 831 381 881 l 350 735 q 325 579 325 621 q 480 446 325 446 q 724 499 564 446 l 797 838 q 802 877 802 863 q 702 933 802 933 l 684 933 l 697 991 l 1101 991 l 1089 933 l 1070 933 q 975 907 1004 933 q 935 833 946 882 l 791 152 q 785 113 785 126 q 886 58 785 58 l 903 58 l 891 0 l 487 0 "},"N":{"x_min":-28.140625,"x_max":1148.484375,"ha":1060,"o":"m 899 839 q 905 878 905 865 q 805 933 905 933 l 787 933 l 799 992 l 1148 992 l 1135 933 l 1117 933 q 1022 908 1051 933 q 983 833 993 882 l 806 0 l 716 0 l 359 814 l 219 152 q 213 113 213 123 q 313 58 213 58 l 331 58 l 319 0 l -28 0 l -15 58 l 2 58 q 95 83 67 58 q 136 158 124 109 l 280 839 q 285 878 285 865 q 185 933 285 933 l 167 933 l 180 992 l 433 992 l 769 225 l 899 839 "},"2":{"x_min":-24,"x_max":707,"ha":777,"o":"m -24 0 l 5 112 l 332 407 q 514 609 461 524 q 566 796 566 695 q 531 899 566 861 q 438 936 497 936 q 240 726 277 936 q 142 815 142 726 q 225 949 142 892 q 444 1006 309 1006 q 638 953 569 1006 q 707 803 707 900 q 647 632 707 720 q 417 392 588 544 l 105 111 l 428 111 q 506 131 473 111 q 566 215 538 152 l 575 237 l 634 237 l 578 0 l -24 0 "},"ü":{"x_min":79.734375,"x_max":809.40625,"ha":832,"o":"m 91 745 l 350 745 l 258 329 q 230 161 230 203 q 298 75 230 75 q 451 178 369 75 q 559 399 534 282 l 631 745 l 766 745 l 670 298 q 649 144 649 200 q 695 73 649 73 q 784 104 734 73 l 809 63 q 633 -14 721 -14 q 548 23 580 -14 q 516 118 516 60 q 523 200 516 154 l 512 200 q 377 32 437 76 q 244 -12 318 -12 q 96 141 96 -12 q 121 294 96 186 l 175 538 q 187 620 187 593 q 90 686 187 686 l 79 686 l 91 745 m 386 878 q 319 947 319 878 q 392 1035 319 1035 q 460 965 460 1035 q 386 878 460 878 m 650 878 q 583 947 583 878 q 656 1035 583 1035 q 724 965 724 1035 q 650 878 724 878 "},"М":{"x_min":-27.78125,"x_max":1377.921875,"ha":1303,"o":"m 798 0 l 810 58 l 814 58 q 897 80 874 58 q 933 145 921 102 l 1091 888 l 584 0 l 509 0 l 375 888 l 219 152 q 213 113 213 123 q 314 58 213 58 l 331 58 l 319 0 l -27 0 l -15 58 l 2 58 q 98 82 71 58 q 135 151 125 107 l 280 839 q 286 878 286 865 q 185 933 286 933 l 168 933 l 180 992 l 495 992 l 613 200 l 1067 992 l 1377 992 l 1365 933 l 1347 933 q 1251 908 1280 933 q 1212 833 1222 882 l 1067 152 q 1062 113 1062 126 q 1162 58 1062 58 l 1180 58 l 1167 0 l 798 0 "},"ь":{"x_min":64.046875,"x_max":673,"ha":733,"o":"m 64 686 l 76 745 l 333 745 l 265 424 q 405 431 350 431 q 673 234 673 431 q 592 52 673 118 q 373 -14 511 -14 q 100 184 100 -14 q 116 324 100 248 l 164 558 q 172 620 172 598 q 75 686 172 686 l 64 686 m 252 355 q 233 204 233 263 q 380 56 233 56 q 496 107 453 56 q 539 230 539 158 q 386 360 539 360 q 252 355 330 360 "},"Ó":{"x_min":72,"x_max":988,"ha":1031,"o":"m 628 1007 q 888 906 789 1007 q 988 625 988 806 q 833 185 988 386 q 436 -16 678 -16 q 171 88 271 -16 q 72 369 72 192 q 228 807 72 608 q 628 1007 384 1007 m 444 59 q 727 251 617 59 q 836 661 836 443 q 778 861 836 791 q 617 931 721 931 q 333 738 443 931 q 223 329 223 546 q 283 129 223 199 q 444 59 342 59 m 561 1089 q 709 1293 640 1180 l 858 1293 l 853 1278 q 612 1071 747 1154 l 557 1071 l 561 1089 "},"˜":{"x_min":233,"x_max":759,"ha":802,"o":"m 696 1006 l 759 1006 q 578 842 710 842 q 464 886 523 842 q 378 929 403 929 q 295 856 319 929 l 233 856 q 414 1020 281 1020 q 529 976 470 1020 q 613 932 588 932 q 696 1006 673 932 "},"ˇ":{"x_min":326,"x_max":740,"ha":802,"o":"m 735 1045 q 552 842 631 944 l 420 842 q 326 1045 386 944 l 330 1064 l 380 1064 q 498 937 444 1013 q 681 1064 585 1011 l 740 1064 l 735 1045 "},"Ў":{"x_min":57.96875,"x_max":1066,"ha":931,"o":"m 1066 992 l 1053 933 l 1026 933 q 965 915 987 933 q 898 825 943 896 l 543 254 q 372 33 431 73 q 159 -7 314 -7 l 57 -7 l 71 62 l 148 62 q 391 209 298 62 l 216 860 q 188 918 204 903 q 133 933 172 933 l 114 933 l 127 992 l 512 992 l 500 933 l 463 933 q 369 865 369 933 q 380 789 369 834 l 458 485 q 496 297 487 371 q 597 480 534 378 l 799 806 q 825 884 825 848 q 747 933 825 933 l 715 933 l 726 992 l 1066 992 m 435 1247 l 558 1279 q 549 1218 549 1249 q 635 1144 549 1144 q 900 1316 792 1144 l 952 1283 q 614 1071 820 1071 q 428 1200 428 1071 q 435 1247 428 1225 "},"€":{"x_min":36,"x_max":822,"ha":777,"o":"m 634 150 q 651 117 651 139 q 587 29 651 72 q 415 -14 522 -14 q 208 66 281 -14 q 135 300 135 147 q 137 370 135 349 l 36 370 l 50 436 l 145 436 q 164 533 153 491 l 69 533 l 83 599 l 181 599 q 613 1003 302 1003 q 765 967 709 1003 q 822 873 822 931 q 699 772 822 772 q 587 934 699 934 q 315 599 410 934 l 607 599 l 592 533 l 298 533 q 280 436 286 490 l 518 436 l 503 370 l 272 370 q 269 291 269 349 q 313 125 269 184 q 440 67 357 67 q 634 150 553 67 "},"в":{"x_min":60,"x_max":686,"ha":717,"o":"m 432 391 q 637 206 637 344 q 553 48 637 110 q 337 -14 470 -14 q 133 53 206 -14 q 60 245 60 121 q 176 601 60 445 q 473 758 292 758 q 626 713 566 758 q 686 599 686 669 q 432 391 686 443 m 228 425 l 241 425 q 463 467 383 425 q 542 588 542 509 q 514 667 542 639 q 442 695 486 695 q 317 614 379 695 q 228 425 254 533 m 215 363 q 203 231 203 303 q 344 65 203 65 q 461 103 419 65 q 503 210 503 142 q 442 327 503 285 q 351 369 380 369 l 215 363 "},"С":{"x_min":72,"x_max":902,"ha":871,"o":"m 728 202 q 746 156 746 189 q 669 37 746 89 q 456 -14 591 -14 q 173 83 274 -14 q 72 357 72 180 q 236 813 72 621 q 644 1006 400 1006 q 834 964 766 1006 q 902 851 902 922 q 864 772 902 801 q 765 743 827 743 q 627 930 765 930 q 339 743 455 930 q 223 335 223 556 q 470 76 223 76 q 728 202 631 76 "},"ß":{"x_min":-190,"x_max":834,"ha":871,"o":"m -190 -323 l -177 -262 q -113 -271 -142 -271 q -5 -211 -43 -271 q 62 -13 33 -151 l 209 682 l 96 682 l 110 745 l 223 745 l 232 786 q 580 1063 296 1063 q 834 851 834 1063 q 814 684 834 777 l 694 684 q 541 570 541 684 q 572 490 541 522 q 657 426 602 458 q 788 216 788 349 q 719 46 788 106 q 520 -14 650 -14 q 365 23 421 -14 q 309 127 309 61 q 338 192 309 167 q 412 217 368 217 q 529 48 412 48 q 628 84 591 48 q 665 180 665 120 q 559 337 665 274 q 421 537 421 423 q 697 747 421 747 q 713 862 713 817 q 576 1000 713 1000 q 367 805 411 1000 l 192 -11 q 86 -257 156 -180 q -109 -334 17 -334 q -190 -323 -148 -334 "},"њ":{"x_min":61,"x_max":1041,"ha":1101,"o":"m 743 745 l 676 424 q 802 431 753 431 q 1041 234 1041 431 q 969 52 1041 119 q 774 -14 897 -14 q 516 231 516 -14 q 525 320 516 263 l 530 353 l 264 353 l 190 0 l 61 0 l 177 558 q 185 620 185 597 q 88 686 185 686 l 77 686 l 90 745 l 347 745 l 277 415 l 545 415 l 612 745 l 743 745 m 661 355 q 644 194 644 262 q 771 56 644 56 q 871 105 835 56 q 907 230 907 154 q 776 360 907 360 q 661 355 728 360 "},"s":{"x_min":35,"x_max":607,"ha":644,"o":"m 502 539 q 469 652 502 609 q 377 694 436 694 q 279 660 315 694 q 242 574 242 627 q 277 496 242 528 q 384 431 311 463 q 551 215 551 356 q 472 49 551 112 q 263 -14 393 -14 q 96 28 158 -14 q 35 142 35 70 q 59 210 35 187 q 122 234 84 234 q 164 97 122 146 q 280 48 205 48 q 430 178 430 48 q 398 262 430 227 q 290 332 366 296 q 156 431 190 380 q 122 548 122 481 q 196 698 122 640 q 389 757 270 757 q 549 718 492 757 q 607 625 607 680 q 502 539 607 539 "},"?":{"x_min":182,"x_max":726,"ha":695,"o":"m 383 439 l 348 279 l 263 279 l 307 484 q 589 786 589 589 q 552 895 589 854 q 455 936 516 936 q 282 739 311 936 q 182 822 182 739 q 259 952 182 899 q 463 1006 337 1006 q 726 775 726 1006 q 383 439 726 564 m 275 -11 q 189 73 189 -11 q 213 150 189 121 q 280 180 238 180 q 344 156 321 180 q 367 95 367 133 q 342 17 367 45 q 275 -11 317 -11 "},"c":{"x_min":60,"x_max":676,"ha":676,"o":"m 556 173 q 571 138 571 164 q 505 34 571 82 q 330 -14 440 -14 q 134 62 209 -14 q 60 272 60 139 q 177 606 60 454 q 473 758 294 758 q 622 719 568 758 q 676 624 676 681 q 642 554 676 582 q 552 527 608 527 q 523 649 552 602 q 444 695 495 695 q 275 549 347 695 q 203 263 203 403 q 356 73 203 73 q 556 173 477 73 "},"¶":{"x_min":66,"x_max":811.25,"ha":857,"o":"m 594 984 l 462 984 l 462 -154 l 245 -154 l 245 -95 l 264 -95 q 354 -69 331 -95 q 378 3 378 -44 l 378 536 l 279 536 q 66 808 66 536 q 281 1055 66 1055 l 811 1055 l 811 996 l 792 996 q 702 971 726 996 q 679 897 679 945 l 679 4 q 702 -70 679 -44 q 792 -95 726 -95 l 811 -95 l 811 -154 l 594 -154 l 594 984 "},"н":{"x_min":61,"x_max":844.421875,"ha":874,"o":"m 803 745 l 702 280 q 685 140 685 199 q 734 73 685 73 q 819 104 769 73 l 844 63 q 668 -14 756 -14 q 578 23 611 -14 q 546 117 546 60 q 560 242 546 172 l 583 351 l 263 351 l 190 0 l 61 0 l 177 558 q 185 620 185 597 q 88 686 185 686 l 77 686 l 90 745 l 347 745 l 276 414 l 597 414 l 666 745 l 803 745 "},"Ὅ":{"x_min":-213,"x_max":988,"ha":1031,"o":"m 628 1007 q 888 906 789 1007 q 988 625 988 806 q 833 185 988 386 q 436 -16 678 -16 q 171 88 271 -16 q 72 369 72 192 q 228 807 72 608 q 628 1007 384 1007 m 444 59 q 727 251 617 59 q 836 661 836 443 q 778 861 836 791 q 617 931 721 931 q 333 738 443 931 q 223 329 223 546 q 283 129 223 199 q 444 59 342 59 m -1 787 q 23 832 9 806 q 50 886 37 858 q 75 941 64 913 q 95 992 87 969 l 220 992 l 217 978 q 189 934 209 961 q 143 876 169 907 q 90 818 117 846 q 41 770 62 789 l -5 770 l -1 787 m -128 765 q -190 789 -168 765 q -213 852 -213 813 q -163 953 -213 917 q -22 997 -114 988 l -29 959 q -95 937 -71 951 q -119 895 -119 923 q -111 875 -119 883 q -93 860 -103 868 q -75 843 -83 852 q -67 817 -67 833 q -84 777 -67 790 q -128 765 -102 765 "},"(":{"x_min":58,"x_max":567,"ha":481,"o":"m 317 -114 l 304 -178 q 58 258 58 -70 q 192 764 58 538 q 567 1055 327 989 l 552 992 q 274 641 360 888 q 188 192 188 395 q 317 -114 188 -24 "},"◊":{"x_min":53,"x_max":730,"ha":761,"o":"m 418 0 l 364 0 l 53 494 l 364 992 l 418 992 l 730 496 l 418 0 m 393 888 l 152 496 l 393 99 l 630 496 l 393 888 "},"м":{"x_min":3,"x_max":1275.46875,"ha":1250,"o":"m 1000 575 l 994 575 l 597 0 l 533 0 l 449 554 q 421 478 437 525 q 306 176 349 273 q 211 34 263 78 q 90 -10 158 -10 q 26 17 49 -10 q 3 82 3 44 q 25 146 3 121 q 80 171 47 171 q 95 126 80 146 q 135 106 110 106 q 218 169 173 106 q 346 475 262 232 q 418 648 393 613 q 308 686 387 686 l 290 686 l 301 745 l 552 745 l 635 181 l 1028 745 l 1275 745 l 1264 686 l 1260 686 q 1173 662 1196 686 q 1139 593 1149 638 l 1072 280 q 1054 140 1054 194 q 1104 73 1054 73 q 1189 104 1139 73 l 1214 63 q 1038 -14 1126 -14 q 948 23 981 -14 q 916 118 916 60 q 930 241 916 172 l 1000 575 "},"­":{"x_min":20,"x_max":403,"ha":431,"o":"m 20 326 l 41 431 l 403 431 l 380 326 l 20 326 "},":":{"x_min":45,"x_max":348,"ha":399,"o":"m 256 559 q 170 643 170 559 q 194 721 170 691 q 261 751 219 751 q 348 666 348 751 q 323 587 348 615 q 256 559 298 559 m 131 -11 q 45 73 45 -11 q 69 150 45 121 q 136 180 94 180 q 200 156 177 180 q 223 95 223 133 q 198 17 223 45 q 131 -11 173 -11 "},"з":{"x_min":3,"x_max":628,"ha":661,"o":"m 116 226 q 160 96 116 144 q 274 48 204 48 q 394 96 346 48 q 441 222 441 145 q 403 311 441 277 q 302 346 365 346 l 173 346 l 189 426 l 320 426 q 448 465 402 426 q 494 577 494 505 q 463 662 494 630 q 373 694 432 694 q 206 543 240 694 q 111 604 111 543 q 181 713 111 670 q 383 757 251 757 q 562 709 497 757 q 628 584 628 661 q 437 389 628 445 l 435 382 q 575 228 575 343 q 490 49 575 113 q 254 -14 406 -14 q 69 27 136 -14 q 3 134 3 69 q 31 199 3 173 q 116 226 59 226 "},"Ґ":{"x_min":-28.140625,"x_max":887,"ha":756,"o":"m 825 922 l 438 922 l 275 152 q 268 113 268 124 q 369 58 268 58 l 414 58 l 402 0 l -28 0 l -15 58 l 1 58 q 136 158 114 58 l 279 833 q 285 878 285 865 q 185 933 285 933 l 167 933 l 180 992 l 632 992 q 730 1013 691 992 q 798 1117 769 1035 l 814 1166 l 887 1166 l 825 922 "},"і":{"x_min":86.4375,"x_max":403.15625,"ha":423,"o":"m 311 883 q 234 959 234 883 q 256 1030 234 1003 q 317 1057 279 1057 q 395 980 395 1057 q 371 907 395 932 q 311 883 348 883 m 86 686 l 98 745 l 347 745 l 253 298 q 232 144 232 198 q 278 73 232 73 q 378 109 318 73 l 403 68 q 215 -14 306 -14 q 131 23 163 -14 q 100 117 100 60 q 131 336 100 180 l 184 591 q 189 628 189 614 q 104 686 189 686 l 86 686 "},"Û":{"x_min":134,"x_max":1105.234375,"ha":1014,"o":"m 139 933 l 151 992 l 555 992 l 545 933 l 526 933 q 431 908 461 933 q 390 833 401 884 l 286 343 q 269 211 269 262 q 469 61 269 61 q 647 113 581 61 q 739 286 713 165 l 857 839 q 862 877 862 864 q 762 933 862 933 l 744 933 l 756 992 l 1105 992 l 1094 933 l 1076 933 q 981 908 1010 933 q 939 833 951 884 l 823 283 q 449 -14 760 -14 q 214 48 295 -14 q 134 226 134 110 q 148 349 134 282 l 252 839 q 257 877 257 865 q 157 933 257 933 l 139 933 m 461 1089 q 644 1293 587 1213 l 776 1293 q 871 1089 796 1213 l 866 1071 l 818 1071 q 694 1195 753 1115 q 516 1071 592 1109 l 457 1071 l 461 1089 "},"V":{"x_min":113.9375,"x_max":1063.921875,"ha":937,"o":"m 433 136 q 545 364 484 256 l 792 806 q 819 884 819 853 q 741 933 819 933 l 709 933 l 720 992 l 1063 992 l 1051 933 l 1024 933 q 954 909 977 933 q 897 825 931 886 l 434 0 l 333 0 l 215 860 q 192 917 209 901 q 132 933 174 933 l 113 933 l 126 992 l 503 992 l 493 933 l 461 933 q 388 915 416 933 q 360 863 360 896 q 364 815 360 839 l 419 364 q 433 136 433 247 "}," ":{"x_min":0,"x_max":0,"ha":361},"У":{"x_min":57.96875,"x_max":1066,"ha":931,"o":"m 1066 992 l 1053 933 l 1026 933 q 965 915 987 933 q 898 825 943 896 l 543 254 q 372 33 431 73 q 159 -7 314 -7 l 57 -7 l 71 62 l 148 62 q 391 209 298 62 l 216 860 q 188 918 204 903 q 133 933 172 933 l 114 933 l 127 992 l 512 992 l 500 933 l 463 933 q 369 865 369 933 q 380 789 369 834 l 458 485 q 496 297 487 371 q 597 480 534 378 l 799 806 q 825 884 825 848 q 747 933 825 933 l 715 933 l 726 992 l 1066 992 "},"@":{"x_min":90,"x_max":1206,"ha":1279,"o":"m 769 233 l 762 233 q 574 107 696 107 q 422 170 480 107 q 364 344 364 233 q 459 613 364 492 q 717 735 555 735 q 848 693 795 735 l 903 722 l 937 722 l 866 367 q 856 274 856 320 q 879 205 856 231 q 941 179 902 179 q 1065 282 1010 179 q 1121 547 1121 386 q 1015 819 1121 720 q 727 919 909 919 q 355 746 511 919 q 199 305 199 573 q 310 -12 199 98 q 613 -124 421 -124 q 966 -9 805 -124 l 999 -59 q 600 -197 812 -197 q 225 -65 361 -197 q 90 302 90 66 q 273 796 90 600 q 735 992 456 992 q 1080 870 954 992 q 1206 544 1206 748 q 1121 231 1206 356 q 933 107 1036 107 q 769 233 812 107 m 801 636 q 723 678 781 678 q 555 563 618 678 q 492 324 492 449 q 522 215 492 250 q 598 179 551 179 q 748 353 715 179 l 801 636 "},"¾":{"x_min":26,"x_max":1133.953125,"ha":1167,"o":"m 105 571 q 135 486 105 520 q 217 452 166 452 q 349 575 349 452 q 316 650 349 622 q 223 679 282 679 l 177 679 l 187 736 l 234 736 q 343 778 299 736 q 387 885 387 820 q 324 950 387 950 q 207 829 231 950 q 116 888 116 829 q 173 971 116 937 q 328 1006 230 1006 q 466 971 417 1006 q 516 879 516 936 q 338 715 516 750 l 337 708 q 477 580 477 689 q 404 439 477 490 q 207 389 331 389 q 72 418 119 389 q 26 496 26 447 q 105 571 26 571 m 321 0 l 225 0 l 924 992 l 1019 992 l 321 0 m 988 177 l 975 120 q 970 82 970 95 q 1018 47 970 47 l 1046 47 l 1036 1 l 731 1 l 741 47 l 779 47 q 847 100 837 47 l 864 177 l 619 177 l 626 224 l 965 601 l 1077 601 l 1001 236 l 1133 236 l 1121 177 l 988 177 m 910 387 q 938 496 927 464 l 909 456 l 712 236 l 876 236 l 910 387 "},"ʼ":{"x_min":114,"x_max":366,"ha":347,"o":"m 114 612 l 119 670 q 261 786 261 702 q 216 839 261 811 q 171 910 171 868 q 194 969 171 947 q 257 992 218 992 q 335 960 304 992 q 366 878 366 929 q 300 706 366 775 q 114 612 234 636 "},"i":{"x_min":86.4375,"x_max":403.15625,"ha":423,"o":"m 311 883 q 234 959 234 883 q 256 1030 234 1003 q 317 1057 279 1057 q 395 980 395 1057 q 371 907 395 932 q 311 883 348 883 m 86 686 l 98 745 l 347 745 l 253 298 q 232 144 232 198 q 278 73 232 73 q 378 109 318 73 l 403 68 q 215 -14 306 -14 q 131 23 163 -14 q 100 117 100 60 q 131 336 100 180 l 184 591 q 189 628 189 614 q 104 686 189 686 l 86 686 "},"ќ":{"x_min":60,"x_max":840,"ha":840,"o":"m 60 0 l 175 538 q 187 620 187 595 q 90 686 187 686 l 79 686 l 91 745 l 350 745 l 278 408 q 373 442 335 408 q 507 594 410 476 q 633 722 589 692 q 736 753 676 753 q 840 669 840 753 q 764 580 840 592 q 703 658 764 658 q 626 627 665 658 q 509 500 587 595 q 410 403 448 425 q 493 367 454 402 q 553 281 532 332 l 602 169 q 743 58 650 58 l 748 58 l 735 0 l 687 0 q 544 27 585 0 q 472 131 503 55 l 427 248 q 370 328 403 310 q 264 345 337 345 l 193 0 l 60 0 m 443 860 q 591 1064 522 951 l 740 1064 l 735 1049 q 494 842 629 925 l 439 842 l 443 860 "},"ё":{"x_min":60,"x_max":682.75,"ha":685,"o":"m 556 173 q 571 138 571 164 q 505 34 571 82 q 330 -14 440 -14 q 134 62 209 -14 q 60 272 60 139 q 177 606 60 454 q 473 758 294 758 q 610 716 562 758 q 659 599 659 674 q 541 404 659 487 q 254 321 424 321 l 231 321 q 205 322 218 321 q 203 263 203 303 q 356 73 203 73 q 556 173 475 73 m 218 383 l 232 383 q 435 444 355 383 q 515 601 515 504 q 434 695 515 695 q 308 609 367 695 q 218 383 250 524 m 344 878 q 277 947 277 878 q 350 1035 277 1035 q 418 965 418 1035 q 344 878 418 878 m 608 878 q 541 947 541 878 q 614 1035 541 1035 q 682 965 682 1035 q 608 878 682 878 "},"m":{"x_min":61,"x_max":1221.421875,"ha":1245,"o":"m 624 0 l 492 0 q 509 144 492 31 q 539 312 527 257 l 571 456 q 591 586 591 540 q 527 669 591 669 q 368 563 450 669 q 265 355 286 457 l 190 0 l 61 0 l 177 558 q 185 620 185 597 q 88 686 185 686 l 77 686 l 90 745 l 347 745 l 309 569 l 323 569 q 576 757 435 757 q 725 603 725 757 q 722 569 725 586 l 736 569 q 989 757 849 757 q 1138 602 1138 757 q 1112 450 1138 558 l 1076 285 q 1059 140 1059 205 q 1107 73 1059 73 q 1196 105 1147 73 l 1221 64 q 1051 -14 1133 -14 q 960 23 994 -14 q 925 124 925 60 q 952 312 925 188 l 975 421 q 1005 586 1005 554 q 940 669 1005 669 q 793 577 869 669 q 686 385 717 486 l 664 286 q 639 137 655 248 q 624 0 624 27 "},"Е":{"x_min":-29.125,"x_max":880,"ha":865,"o":"m 257 69 l 524 69 q 682 183 642 69 l 703 242 l 776 242 l 715 0 l -29 0 l -18 58 l 0 58 q 98 83 70 58 q 135 151 125 107 l 279 833 q 283 867 283 852 q 264 916 283 899 q 185 933 245 933 l 168 933 l 180 992 l 880 992 l 835 749 l 763 749 l 767 791 q 770 829 770 824 q 671 922 770 922 l 438 922 l 359 553 l 694 553 l 680 483 l 345 483 l 257 69 "},"Э":{"x_min":18,"x_max":835,"ha":876,"o":"m 656 465 l 269 465 l 283 535 l 667 535 q 683 679 683 619 q 633 870 683 803 q 490 936 583 936 q 357 882 412 936 q 282 734 302 827 q 209 759 237 734 q 181 831 181 784 q 269 954 181 902 q 497 1006 358 1006 q 746 913 657 1006 q 835 649 835 821 q 688 181 835 376 q 307 -14 542 -14 q 93 33 168 -14 q 18 165 18 80 q 47 239 18 212 q 123 266 77 266 q 176 124 123 186 q 318 61 230 61 q 656 465 567 61 "},"ю":{"x_min":61,"x_max":1102,"ha":1162,"o":"m 458 351 l 263 351 l 190 0 l 61 0 l 177 558 q 185 620 185 597 q 88 686 185 686 l 77 686 l 90 745 l 347 745 l 276 414 l 470 414 q 612 665 512 573 q 849 758 713 758 q 1034 683 966 758 q 1102 470 1102 609 q 993 135 1102 285 q 707 -14 885 -14 q 520 61 588 -14 q 453 274 453 137 q 458 351 453 321 m 724 56 q 895 192 832 56 q 958 494 958 329 q 832 687 958 687 q 660 551 725 687 q 596 247 596 415 q 724 56 596 56 "},"á":{"x_min":60,"x_max":797.625,"ha":804,"o":"m 507 209 l 498 209 q 238 -14 398 -14 q 107 52 154 -14 q 60 239 60 119 q 178 594 60 431 q 473 758 297 758 q 636 707 567 758 l 697 743 l 742 743 l 647 298 q 626 144 626 202 q 672 73 626 73 q 772 109 711 73 l 797 68 q 601 -14 697 -14 q 493 101 493 -14 q 507 209 493 145 m 586 645 q 481 695 554 695 q 283 544 363 695 q 203 234 203 393 q 290 73 203 73 q 434 175 358 73 q 534 399 510 278 l 586 645 m 432 860 q 580 1064 511 951 l 729 1064 l 724 1049 q 483 842 618 925 l 428 842 l 432 860 "},"×":{"x_min":98.578125,"x_max":676.421875,"ha":777,"o":"m 387 438 l 156 208 l 98 267 l 329 498 l 98 727 l 156 786 l 387 555 l 618 787 l 676 727 l 445 497 l 676 266 l 618 208 l 387 438 "},"п":{"x_min":61,"x_max":808.421875,"ha":832,"o":"m 190 0 l 61 0 l 177 558 q 185 620 185 597 q 88 686 185 686 l 77 686 l 90 745 l 347 745 l 309 569 l 323 569 q 576 757 435 757 q 725 602 725 757 q 699 450 725 558 l 663 285 q 645 140 645 202 q 694 73 645 73 q 783 105 734 73 l 808 64 q 638 -14 717 -14 q 546 23 581 -14 q 512 124 512 60 q 539 312 512 188 l 571 456 q 591 586 591 540 q 527 669 591 669 q 369 564 450 669 q 265 355 288 459 l 190 0 "},"K":{"x_min":-29.484375,"x_max":1054,"ha":973,"o":"m -18 58 l 0 58 q 95 83 66 58 q 136 158 125 109 l 280 839 q 285 878 285 865 q 185 933 285 933 l 167 933 l 180 992 l 584 992 l 572 933 l 553 933 q 458 908 487 933 q 418 833 428 883 l 358 552 l 334 450 l 693 779 q 797 904 797 875 q 735 935 797 935 l 747 992 l 1054 992 l 1043 935 q 963 910 1007 935 q 829 804 918 886 l 576 575 l 744 169 q 876 58 790 58 l 880 58 l 868 0 l 848 0 q 684 22 738 0 q 598 128 631 45 l 463 472 l 320 372 l 275 152 q 268 113 268 122 q 369 58 268 58 l 386 58 l 374 0 l -29 0 l -18 58 "},"7":{"x_min":125,"x_max":806.171875,"ha":777,"o":"m 150 0 l 664 880 l 298 880 q 203 810 222 880 l 183 741 l 125 741 l 184 992 l 806 992 l 798 951 l 254 0 l 150 0 "},"¨":{"x_min":279,"x_max":684.75,"ha":802,"o":"m 346 878 q 279 947 279 878 q 352 1035 279 1035 q 420 965 420 1035 q 346 878 420 878 m 610 878 q 543 947 543 878 q 616 1035 543 1035 q 684 965 684 1035 q 610 878 684 878 "},"Y":{"x_min":107.546875,"x_max":999,"ha":868,"o":"m 494 992 l 482 933 l 412 933 q 355 896 355 933 q 374 815 355 869 l 436 629 q 473 462 469 530 q 577 608 487 488 l 710 785 q 760 897 760 852 q 694 933 760 933 l 642 933 l 655 992 l 999 992 l 986 933 l 959 933 q 907 912 933 933 q 833 828 881 890 l 510 404 l 455 152 q 450 113 450 127 q 550 58 450 58 l 582 58 l 569 0 l 137 0 l 150 58 l 181 58 q 278 82 251 58 q 315 151 306 106 l 369 407 l 208 860 q 177 919 193 904 q 125 933 162 933 l 107 933 l 119 992 l 494 992 "},"E":{"x_min":-29.125,"x_max":880,"ha":865,"o":"m 257 69 l 524 69 q 682 183 642 69 l 703 242 l 776 242 l 715 0 l -29 0 l -18 58 l 0 58 q 98 83 70 58 q 135 151 125 107 l 279 833 q 283 867 283 852 q 264 916 283 899 q 185 933 245 933 l 168 933 l 180 992 l 880 992 l 835 749 l 763 749 l 767 791 q 770 829 770 824 q 671 922 770 922 l 438 922 l 359 553 l 694 553 l 680 483 l 345 483 l 257 69 "},"Ô":{"x_min":72,"x_max":988,"ha":1031,"o":"m 628 1007 q 888 906 789 1007 q 988 625 988 806 q 833 185 988 386 q 436 -16 678 -16 q 171 88 271 -16 q 72 369 72 192 q 228 807 72 608 q 628 1007 384 1007 m 444 59 q 727 251 617 59 q 836 661 836 443 q 778 861 836 791 q 617 931 721 931 q 333 738 443 931 q 223 329 223 546 q 283 129 223 199 q 444 59 342 59 m 434 1089 q 617 1293 560 1213 l 749 1293 q 844 1089 769 1213 l 839 1071 l 791 1071 q 667 1195 726 1115 q 489 1071 565 1109 l 430 1071 l 434 1089 "},"Ï":{"x_min":-29.484375,"x_max":610.75,"ha":510,"o":"m 584 992 l 572 933 l 553 933 q 458 908 487 933 q 418 833 428 883 l 275 152 q 268 113 268 123 q 369 58 268 58 l 386 58 l 374 0 l -29 0 l -18 58 l 0 58 q 136 158 114 58 l 280 839 q 285 878 285 865 q 185 933 285 933 l 167 933 l 180 992 l 584 992 m 272 1107 q 205 1176 205 1107 q 278 1264 205 1264 q 346 1194 346 1264 q 272 1107 346 1107 m 536 1107 q 469 1176 469 1107 q 542 1264 469 1264 q 610 1194 610 1264 q 536 1107 610 1107 "},"Є":{"x_min":72,"x_max":902,"ha":853,"o":"m 728 202 q 746 156 746 189 q 669 37 746 89 q 456 -14 591 -14 q 173 83 274 -14 q 72 357 72 180 q 236 813 72 621 q 644 1006 400 1006 q 834 964 766 1006 q 902 851 902 922 q 864 772 902 801 q 765 743 827 743 q 627 930 765 930 q 400 824 500 930 q 250 534 299 718 l 637 534 l 624 464 l 234 464 q 223 335 223 398 q 470 76 223 76 q 728 202 631 76 "},"±":{"x_min":102,"x_max":696,"ha":777,"o":"m 439 455 l 439 199 l 357 199 l 357 455 l 102 455 l 102 538 l 357 538 l 357 794 l 439 794 l 439 538 l 696 538 l 696 455 l 439 455 m 696 0 l 102 0 l 102 82 l 696 82 l 696 0 "},"ì":{"x_min":86.4375,"x_max":403.15625,"ha":423,"o":"m 86 686 l 98 745 l 347 745 l 253 298 q 232 144 232 198 q 278 73 232 73 q 378 109 318 73 l 403 68 q 215 -14 306 -14 q 131 23 163 -14 q 100 117 100 60 q 131 336 100 180 l 184 591 q 189 628 189 614 q 104 686 189 686 l 86 686 m 309 842 q 130 1049 204 943 l 134 1064 l 273 1064 q 366 860 313 959 l 361 842 l 309 842 "},"|":{"x_min":357,"x_max":439.0625,"ha":777,"o":"m 439 -334 l 357 -334 l 357 1055 l 439 1055 l 439 -334 "},"§":{"x_min":28,"x_max":727,"ha":756,"o":"m 115 88 q 160 -40 115 8 q 285 -89 206 -89 q 422 -44 369 -89 q 474 73 474 0 q 439 158 474 117 q 276 268 405 199 q 122 492 122 352 q 244 680 122 604 q 211 805 211 736 q 294 986 211 918 q 507 1055 378 1055 q 665 1014 604 1055 q 727 916 727 973 q 701 843 727 866 q 614 820 676 820 q 580 946 614 899 q 482 992 547 992 q 366 954 414 992 q 318 850 318 916 q 346 760 318 796 q 501 655 374 723 q 671 439 671 564 q 550 229 671 322 q 578 125 578 177 q 491 -79 578 1 q 264 -160 405 -160 q 92 -116 157 -160 q 28 -2 28 -73 q 52 65 28 41 q 115 88 77 88 m 275 641 q 219 543 219 601 q 253 455 219 491 q 380 366 287 418 q 515 273 462 321 q 567 379 567 329 q 424 540 567 462 q 275 641 325 594 "},"џ":{"x_min":79.734375,"x_max":809.40625,"ha":832,"o":"m 91 745 l 350 745 l 258 329 q 230 161 230 203 q 298 75 230 75 q 451 178 369 75 q 559 399 534 282 l 631 745 l 766 745 l 670 298 q 649 144 649 200 q 695 73 649 73 q 784 104 734 73 l 809 63 q 633 -14 721 -14 q 548 23 580 -14 q 516 118 516 60 q 523 200 516 154 l 512 200 q 377 32 437 76 q 244 -12 318 -12 q 96 141 96 -12 q 121 294 96 186 l 175 538 q 187 620 187 593 q 90 686 187 686 l 79 686 l 91 745 m 461 22 q 385 -237 429 -157 q 237 -317 341 -317 q 117 -295 171 -317 l 133 -241 q 189 -249 157 -249 q 306 -189 248 -249 q 385 -30 364 -130 l 461 22 "},"љ":{"x_min":3,"x_max":1107,"ha":1167,"o":"m 662 676 q 596 690 632 690 q 489 640 522 690 q 373 359 455 589 q 243 74 302 159 q 89 -10 183 -10 q 25 17 47 -10 q 3 82 3 44 q 25 146 3 121 q 80 171 47 171 q 95 125 80 145 q 132 106 109 106 q 214 171 177 106 q 347 503 250 237 q 461 714 410 675 q 599 753 511 753 q 806 731 690 753 l 743 423 q 868 430 820 430 q 1107 233 1107 430 q 1035 52 1107 119 q 840 -14 963 -14 q 580 229 580 -14 q 590 317 580 263 l 641 558 q 662 676 662 658 m 727 354 q 710 192 710 260 q 836 56 710 56 q 936 105 900 56 q 973 230 973 153 q 841 359 973 359 q 727 354 794 359 "},"й":{"x_min":79.734375,"x_max":809.40625,"ha":832,"o":"m 91 745 l 350 745 l 258 329 q 230 161 230 203 q 298 75 230 75 q 451 178 369 75 q 559 399 534 282 l 631 745 l 766 745 l 670 298 q 649 144 649 200 q 695 73 649 73 q 784 104 734 73 l 809 63 q 633 -14 721 -14 q 548 23 580 -14 q 516 118 516 60 q 523 200 516 154 l 512 200 q 377 32 437 76 q 244 -12 318 -12 q 96 141 96 -12 q 121 294 96 186 l 175 538 q 187 620 187 593 q 90 686 187 686 l 79 686 l 91 745 m 292 1018 l 415 1050 q 406 989 406 1020 q 492 915 406 915 q 757 1087 649 915 l 809 1054 q 471 842 677 842 q 285 971 285 842 q 292 1018 285 996 "},"q":{"x_min":60,"x_max":746,"ha":778,"o":"m 498 209 q 238 -14 397 -14 q 107 52 154 -14 q 60 239 60 119 q 178 594 60 431 q 473 758 297 758 q 627 720 560 758 l 661 739 q 697 758 694 758 l 746 758 l 554 -147 q 545 -209 545 -186 q 641 -275 545 -275 l 653 -275 l 640 -334 l 387 -334 l 445 -56 q 507 209 451 -29 l 498 209 m 585 645 q 481 695 555 695 q 282 542 361 695 q 203 232 203 388 q 290 73 203 73 q 433 174 358 73 q 534 399 508 274 l 585 645 "},"b":{"x_min":37,"x_max":721,"ha":781,"o":"m 144 35 l 81 -4 l 37 -4 l 220 858 q 233 931 233 915 q 136 996 233 996 l 124 996 l 137 1055 l 399 1055 l 333 743 q 282 559 318 675 l 289 559 q 544 758 392 758 q 674 694 627 758 q 721 507 721 630 q 601 149 721 313 q 307 -14 482 -14 q 144 35 207 -14 m 193 97 q 300 48 234 48 q 499 202 420 48 q 577 508 577 356 q 490 670 577 670 q 342 565 414 670 q 252 373 270 459 l 193 97 "},"˳":{"x_min":-33,"x_max":300,"ha":463,"o":"m 300 -236 q 287 -301 300 -273 q 251 -348 274 -329 q 198 -377 229 -367 q 133 -387 168 -387 q 68 -377 98 -387 q 15 -348 37 -367 q -20 -301 -7 -329 q -33 -236 -33 -273 q -20 -171 -33 -199 q 15 -123 -7 -142 q 68 -94 37 -104 q 133 -85 98 -85 q 198 -94 168 -85 q 251 -123 229 -104 q 287 -171 274 -142 q 300 -236 300 -199 m 224 -236 q 217 -197 224 -213 q 197 -172 209 -181 q 168 -157 185 -162 q 133 -152 152 -152 q 98 -157 114 -152 q 69 -172 82 -162 q 49 -197 57 -181 q 42 -236 42 -213 q 49 -274 42 -258 q 69 -299 57 -290 q 98 -314 82 -309 q 133 -319 114 -319 q 168 -314 152 -319 q 197 -299 185 -309 q 217 -274 209 -290 q 224 -236 224 -258 "},"Ж":{"x_min":-75,"x_max":1428,"ha":1360,"o":"m 388 0 l 400 58 l 417 58 q 512 82 483 58 q 554 158 542 107 l 620 472 q 462 455 507 472 q 383 377 417 439 l 244 132 q 152 25 198 51 q -30 0 107 0 l -75 0 l -62 58 l -58 58 q 119 169 51 58 l 257 404 q 490 526 325 521 q 384 733 435 573 q 325 872 348 848 q 272 897 302 897 q 179 819 209 897 q 129 900 129 840 q 253 1000 129 1000 q 370 953 330 1000 q 447 774 409 905 q 533 574 494 617 q 633 531 572 531 l 698 839 q 703 878 703 865 q 604 933 703 933 l 585 933 l 598 992 l 991 992 l 979 933 l 960 933 q 865 908 895 933 q 826 833 836 884 l 762 531 q 918 568 868 531 q 1049 774 968 606 q 1171 947 1108 895 q 1321 1000 1233 1000 q 1428 920 1428 1000 q 1340 819 1428 826 q 1275 897 1340 897 q 1192 862 1227 897 q 1109 733 1157 827 q 955 525 1020 558 q 1053 404 1021 502 l 1134 169 q 1274 58 1172 58 l 1279 58 l 1266 0 l 1247 0 q 1077 24 1133 0 q 996 132 1021 48 l 922 377 q 870 455 903 439 q 750 472 838 472 l 682 152 q 676 113 676 123 q 776 58 676 58 l 794 58 l 781 0 l 388 0 "},"®":{"x_min":87,"x_max":1108,"ha":1174,"o":"m 597 1007 q 957 856 806 1007 q 1108 495 1108 706 q 958 135 1108 285 q 597 -14 808 -14 q 236 135 385 -14 q 87 495 87 285 q 236 856 87 706 q 597 1007 386 1007 m 596 61 q 904 189 776 61 q 1032 495 1032 317 q 904 803 1032 675 q 596 931 776 931 q 289 802 416 931 q 162 495 162 674 q 289 189 162 317 q 596 61 416 61 m 334 242 l 352 242 q 421 291 421 242 l 421 698 q 352 747 421 747 l 334 747 l 334 796 l 584 796 q 823 630 823 796 q 696 477 823 519 l 820 279 q 847 249 833 257 q 898 242 861 242 l 898 196 l 751 196 l 598 454 l 524 454 l 524 291 q 592 242 524 242 l 612 242 l 612 196 l 334 196 l 334 242 m 524 506 l 583 506 q 683 534 652 506 q 713 629 713 561 q 682 716 713 690 q 578 741 651 741 l 524 741 l 524 506 "},"Н":{"x_min":-29.484375,"x_max":1175.984375,"ha":1101,"o":"m 561 0 l 573 58 l 590 58 q 686 83 657 58 q 727 158 716 107 l 796 483 l 344 483 l 275 152 q 268 113 268 123 q 369 58 268 58 l 386 58 l 374 0 l -29 0 l -18 58 l 0 58 q 95 83 66 58 q 136 158 125 109 l 280 839 q 285 878 285 865 q 185 933 285 933 l 167 933 l 180 992 l 584 992 l 572 933 l 553 933 q 458 908 487 933 q 418 833 428 883 l 359 553 l 810 553 l 871 839 q 876 878 876 865 q 777 933 876 933 l 758 933 l 771 992 l 1175 992 l 1163 933 l 1145 933 q 1049 908 1079 933 q 1010 833 1020 882 l 866 152 q 860 113 860 126 q 960 58 860 58 l 978 58 l 965 0 l 561 0 "},"ф":{"x_min":60,"x_max":1033,"ha":1093,"o":"m 516 -49 q 417 -256 489 -178 q 241 -334 346 -334 q 81 -230 81 -334 q 183 -155 81 -155 q 258 -271 183 -271 q 388 -94 351 -271 l 415 38 q 254 -14 350 -14 q 113 58 166 -14 q 60 262 60 131 q 165 604 60 450 q 443 758 270 758 q 561 728 508 758 l 579 809 q 681 1015 614 961 q 841 1070 749 1070 q 968 1045 925 1070 q 1011 983 1011 1021 q 904 904 1011 904 q 834 1007 904 1007 q 703 830 741 1007 l 676 705 q 839 758 743 758 q 980 685 927 758 q 1033 481 1033 612 q 927 139 1033 292 q 647 -14 821 -14 q 529 15 583 -14 l 516 -49 m 432 118 l 543 645 q 508 681 536 667 q 451 695 479 695 q 273 549 343 695 q 203 249 203 403 q 311 65 203 65 q 432 118 371 65 m 660 625 l 548 97 q 584 61 555 75 q 640 48 612 48 q 819 194 748 48 q 889 494 889 341 q 781 678 889 678 q 660 625 721 678 "},"₧":{"x_min":-58.125,"x_max":1094,"ha":1137,"o":"m -58 0 l -45 58 l -27 58 q 66 83 37 58 q 106 158 95 108 l 250 839 q 255 878 255 865 q 155 933 255 933 l 137 933 l 150 992 l 463 992 q 697 922 614 992 q 780 723 780 852 q 673 475 780 565 q 355 386 566 386 l 294 386 l 244 152 q 238 113 238 127 q 339 58 238 58 l 384 58 l 372 0 l -58 0 m 309 455 l 340 455 q 628 722 628 455 q 430 922 628 922 l 408 922 l 309 455 m 1038 87 l 1062 42 q 900 -14 991 -14 q 751 125 751 -14 q 770 265 751 186 l 807 440 l 702 440 l 713 489 q 925 683 849 489 l 976 683 l 939 513 l 1094 513 l 1078 440 l 924 440 l 887 269 q 869 132 869 185 q 938 59 869 59 q 1038 87 990 59 "},"л":{"x_min":3,"x_max":870.125,"ha":892,"o":"m 80 171 q 95 126 80 146 q 135 106 110 106 q 227 185 184 106 q 357 503 270 263 q 472 716 421 679 q 610 753 524 753 q 824 730 701 753 l 728 280 q 710 140 710 197 q 760 73 710 73 q 845 104 794 73 l 870 63 q 693 -14 781 -14 q 604 22 637 -14 q 571 117 571 59 q 586 241 571 172 l 678 676 q 607 690 644 690 q 497 640 532 690 q 379 359 463 589 q 249 77 311 165 q 90 -10 188 -10 q 26 17 49 -10 q 3 82 3 44 q 25 146 3 121 q 80 171 47 171 "},"L":{"x_min":-28.140625,"x_max":787,"ha":865,"o":"m -15 58 l 2 58 q 95 83 67 58 q 136 158 124 109 l 280 839 q 285 878 285 865 q 185 933 285 933 l 167 933 l 180 992 l 584 992 l 572 933 l 553 933 q 459 910 488 933 q 420 839 431 886 l 256 69 l 529 69 q 678 194 636 69 l 715 298 l 787 298 l 715 0 l -28 0 l -15 58 "},"Щ":{"x_min":-27.78125,"x_max":1574.96875,"ha":1499,"o":"m 1390 58 l 1315 -292 l 1251 -292 q 1265 -174 1265 -224 q 1109 0 1265 -4 l -27 0 l -15 58 l 1 58 q 96 83 67 58 q 135 152 124 107 l 282 839 q 287 878 287 864 q 187 933 287 933 l 169 933 l 181 992 l 586 992 l 573 933 l 555 933 q 419 833 440 933 l 258 69 l 613 69 l 777 839 q 782 878 782 865 q 682 933 782 933 l 664 933 l 676 992 l 1080 992 l 1068 933 l 1050 933 q 956 910 985 933 q 917 840 928 888 l 752 69 l 1107 69 l 1271 839 q 1276 878 1276 865 q 1176 933 1276 933 l 1158 933 l 1170 992 l 1574 992 l 1562 933 l 1544 933 q 1450 910 1479 933 q 1411 840 1422 888 l 1264 152 q 1258 113 1258 124 q 1341 58 1258 61 l 1390 58 "}," ":{"x_min":0,"x_max":0,"ha":361},"À":{"x_min":-77.84375,"x_max":912.375,"ha":979,"o":"m 277 332 l 193 186 q 167 108 167 139 q 244 58 167 58 l 276 58 l 265 0 l -77 0 l -66 58 l -39 58 q 22 77 -2 58 q 89 166 47 97 l 572 992 l 680 992 l 812 132 q 835 73 818 88 q 894 58 852 58 l 912 58 l 900 0 l 523 0 l 533 58 l 566 58 q 666 128 666 58 q 663 176 666 157 l 640 332 l 277 332 m 597 644 q 574 864 576 792 q 466 657 542 789 l 318 402 l 631 402 l 597 644 m 626 1071 q 447 1278 521 1172 l 451 1293 l 590 1293 q 683 1089 630 1188 l 678 1071 l 626 1071 "},"+":{"x_min":102,"x_max":696,"ha":777,"o":"m 439 455 l 439 199 l 357 199 l 357 455 l 102 455 l 102 538 l 357 538 l 357 794 l 439 794 l 439 538 l 696 538 l 696 455 l 439 455 "},"½":{"x_min":18.25,"x_max":1120,"ha":1167,"o":"m 18 399 l 28 445 l 92 445 q 160 498 149 445 l 244 898 l 115 898 l 125 946 l 194 946 q 321 999 291 946 l 390 999 l 293 539 q 283 481 283 491 q 332 445 283 445 l 396 445 l 386 399 l 18 399 m 270 0 l 174 0 l 873 992 l 968 992 l 270 0 m 626 0 l 632 41 l 848 219 q 960 338 923 281 q 997 472 997 395 q 928 553 997 553 q 855 517 886 553 q 816 421 824 480 q 750 439 774 421 q 727 488 727 458 q 784 574 727 540 q 938 609 841 609 q 1071 572 1022 609 q 1120 476 1120 535 q 1077 353 1120 410 q 928 211 1035 296 l 762 78 l 953 78 q 1026 135 1005 78 l 1037 164 l 1085 164 l 1046 0 l 626 0 "},"Ë":{"x_min":-29.125,"x_max":880,"ha":865,"o":"m 257 69 l 524 69 q 682 183 642 69 l 703 242 l 776 242 l 715 0 l -29 0 l -18 58 l 0 58 q 98 83 70 58 q 135 151 125 107 l 279 833 q 283 867 283 852 q 264 916 283 899 q 185 933 245 933 l 168 933 l 180 992 l 880 992 l 835 749 l 763 749 l 767 791 q 770 829 770 824 q 671 922 770 922 l 438 922 l 359 553 l 694 553 l 680 483 l 345 483 l 257 69 m 434 1107 q 367 1176 367 1107 q 440 1264 367 1264 q 508 1194 508 1264 q 434 1107 508 1107 m 698 1107 q 631 1176 631 1107 q 704 1264 631 1264 q 772 1194 772 1264 q 698 1107 772 1107 "},"'":{"x_min":176,"x_max":351,"ha":306,"o":"m 203 992 l 351 992 l 239 666 l 176 666 l 203 992 "},"˛":{"x_min":231,"x_max":521,"ha":695,"o":"m 516 0 q 392 -70 440 -24 q 344 -172 344 -116 q 367 -227 344 -207 q 427 -247 390 -247 q 521 -236 463 -247 l 504 -311 q 393 -334 451 -334 q 231 -192 231 -334 q 284 -72 231 -122 q 437 0 338 -22 l 516 0 "},"Р":{"x_min":-28.140625,"x_max":852,"ha":861,"o":"m -28 0 l -15 58 l 2 58 q 96 83 67 58 q 136 158 125 108 l 280 839 q 285 878 285 865 q 185 933 285 933 l 167 933 l 180 992 l 536 992 q 769 922 686 992 q 852 723 852 852 q 745 475 852 565 q 427 386 639 386 l 324 386 l 275 152 q 268 113 268 124 q 369 58 268 58 l 414 58 l 402 0 l -28 0 m 339 455 l 411 455 q 700 722 700 455 q 501 922 700 922 l 438 922 l 339 455 "},"щ":{"x_min":79.375,"x_max":1216.28125,"ha":1251,"o":"m 910 175 q 658 -12 799 -12 q 510 141 510 -12 q 513 175 510 158 l 498 175 q 245 -12 387 -12 q 97 141 97 -12 q 114 257 97 179 l 179 558 q 187 620 187 596 q 90 686 187 686 l 79 686 l 91 745 l 348 745 l 259 329 q 230 157 230 192 q 294 75 230 75 q 441 167 365 75 q 548 358 518 258 l 628 745 l 758 745 l 671 336 q 643 157 643 207 q 706 75 643 75 q 865 181 784 75 q 969 388 947 287 l 1044 745 l 1173 745 l 1077 298 q 1056 144 1056 204 q 1102 73 1056 73 q 1191 104 1141 73 l 1216 63 q 1137 -230 1181 -144 q 985 -317 1094 -317 q 866 -295 919 -317 l 881 -241 q 936 -249 906 -249 q 1055 -178 994 -249 q 1136 6 1115 -108 q 1039 -14 1078 -14 q 954 22 987 -14 q 921 118 921 58 q 926 175 921 143 l 910 175 "},"ð":{"x_min":60,"x_max":743,"ha":802,"o":"m 596 667 q 498 864 566 792 l 299 763 l 315 840 l 451 910 q 298 987 391 956 l 321 1057 q 541 954 446 1025 l 743 1059 l 724 979 l 588 909 q 697 732 657 841 q 738 502 738 623 q 628 122 738 266 q 326 -22 518 -22 q 132 50 204 -22 q 60 250 60 122 q 174 564 60 423 q 475 705 288 705 q 596 667 549 705 m 341 48 q 526 175 457 48 q 594 452 594 301 q 458 634 594 634 q 273 507 343 634 q 203 230 203 381 q 341 48 203 48 "},"ä":{"x_min":60,"x_max":797.625,"ha":804,"o":"m 507 209 l 498 209 q 238 -14 398 -14 q 107 52 154 -14 q 60 239 60 119 q 178 594 60 431 q 473 758 297 758 q 636 707 567 758 l 697 743 l 742 743 l 647 298 q 626 144 626 202 q 672 73 626 73 q 772 109 711 73 l 797 68 q 601 -14 697 -14 q 493 101 493 -14 q 507 209 493 145 m 586 645 q 481 695 554 695 q 283 544 363 695 q 203 234 203 393 q 290 73 203 73 q 434 175 358 73 q 534 399 510 278 l 586 645 m 341 878 q 274 947 274 878 q 347 1035 274 1035 q 415 965 415 1035 q 341 878 415 878 m 605 878 q 538 947 538 878 q 611 1035 538 1035 q 679 965 679 1035 q 605 878 679 878 "},"Т":{"x_min":105.921875,"x_max":946.25,"ha":851,"o":"m 445 152 q 440 113 440 126 q 540 58 440 58 l 572 58 l 559 0 l 127 0 l 140 58 l 172 58 q 269 82 242 58 q 306 151 296 106 l 469 922 l 336 922 q 197 808 237 922 l 177 749 l 105 749 l 164 992 l 946 992 l 901 749 l 829 749 q 836 833 836 803 q 744 922 836 922 l 609 922 l 445 152 "},"¹":{"x_min":91.25,"x_max":469.015625,"ha":555,"o":"m 91 399 l 101 445 l 165 445 q 233 498 222 445 l 317 898 l 188 898 l 198 946 l 267 946 q 394 999 364 946 l 463 999 l 366 539 q 356 481 356 491 q 405 445 356 445 l 469 445 l 459 399 l 91 399 "},"£":{"x_min":-1,"x_max":778,"ha":777,"o":"m 359 468 q 364 394 364 438 q 189 130 364 233 l 190 123 q 297 149 247 149 q 418 122 337 149 q 526 96 498 96 q 665 159 603 96 l 702 113 q 466 -14 577 -14 q 338 16 422 -14 q 204 47 254 47 q 43 8 127 47 l 24 -1 l -1 54 l 47 82 q 247 382 247 196 q 237 468 247 415 l 83 468 l 98 538 l 226 538 q 208 677 208 623 q 299 918 208 831 q 547 1006 391 1006 q 715 968 652 1006 q 778 869 778 930 q 662 759 778 759 q 526 936 662 936 q 380 871 431 936 q 330 686 330 805 q 349 538 330 632 l 586 538 l 571 468 l 359 468 "},"W":{"x_min":123.265625,"x_max":1563.296875,"ha":1451,"o":"m 1298 806 q 1324 884 1324 859 q 1246 933 1324 933 l 1213 933 l 1224 992 l 1563 992 l 1551 933 l 1524 933 q 1454 911 1479 933 q 1396 825 1429 890 l 986 0 l 859 0 l 797 770 l 423 0 l 296 0 l 225 860 q 204 915 221 897 q 141 933 187 933 l 123 933 l 136 992 l 513 992 l 501 933 l 469 933 q 369 863 369 933 q 372 815 369 834 l 405 371 q 414 136 414 244 q 528 386 473 273 l 820 982 l 920 982 l 965 380 q 973 136 976 244 q 1077 364 1034 278 l 1298 806 "},"а":{"x_min":60,"x_max":797.625,"ha":804,"o":"m 507 209 l 498 209 q 238 -14 398 -14 q 107 52 154 -14 q 60 239 60 119 q 178 594 60 431 q 473 758 297 758 q 636 707 567 758 l 697 743 l 742 743 l 647 298 q 626 144 626 202 q 672 73 626 73 q 772 109 711 73 l 797 68 q 601 -14 697 -14 q 493 101 493 -14 q 507 209 493 145 m 586 645 q 481 695 554 695 q 283 544 363 695 q 203 234 203 393 q 290 73 203 73 q 434 175 358 73 q 534 399 510 278 l 586 645 "},"v":{"x_min":24.125,"x_max":701,"ha":747,"o":"m 134 612 q 37 686 122 686 l 24 686 l 34 745 l 243 745 l 307 333 q 339 87 331 176 l 343 87 q 522 320 446 186 q 598 534 598 453 q 574 611 598 582 q 512 639 551 639 q 539 720 512 689 q 606 751 566 751 q 701 622 701 751 q 605 326 701 496 q 355 1 509 157 l 230 -12 l 134 612 "},">":{"x_min":102,"x_max":698,"ha":777,"o":"m 102 152 l 102 244 l 569 495 l 102 748 l 102 841 l 698 520 l 698 471 l 102 152 "},"Ї":{"x_min":-29.484375,"x_max":610.75,"ha":510,"o":"m 584 992 l 572 933 l 553 933 q 458 908 487 933 q 418 833 428 883 l 275 152 q 268 113 268 123 q 369 58 268 58 l 386 58 l 374 0 l -29 0 l -18 58 l 0 58 q 136 158 114 58 l 280 839 q 285 878 285 865 q 185 933 285 933 l 167 933 l 180 992 l 584 992 m 272 1107 q 205 1176 205 1107 q 278 1264 205 1264 q 346 1194 346 1264 q 272 1107 346 1107 m 536 1107 q 469 1176 469 1107 q 542 1264 469 1264 q 610 1194 610 1264 q 536 1107 610 1107 "},"û":{"x_min":79.734375,"x_max":809.40625,"ha":832,"o":"m 91 745 l 350 745 l 258 329 q 230 161 230 203 q 298 75 230 75 q 451 178 369 75 q 559 399 534 282 l 631 745 l 766 745 l 670 298 q 649 144 649 200 q 695 73 649 73 q 784 104 734 73 l 809 63 q 633 -14 721 -14 q 548 23 580 -14 q 516 118 516 60 q 523 200 516 154 l 512 200 q 377 32 437 76 q 244 -12 318 -12 q 96 141 96 -12 q 121 294 96 186 l 175 538 q 187 620 187 593 q 90 686 187 686 l 79 686 l 91 745 m 294 860 q 477 1064 420 984 l 609 1064 q 704 860 629 984 l 699 842 l 651 842 q 527 966 586 886 q 349 842 425 880 l 290 842 l 294 860 "},"Ð":{"x_min":-29.484375,"x_max":992,"ha":1038,"o":"m -18 58 l 0 58 q 136 158 114 58 l 205 483 l 70 483 l 85 553 l 219 553 l 280 839 q 285 878 285 865 q 185 933 285 933 l 167 933 l 180 992 l 597 992 q 889 893 786 992 q 992 614 992 795 q 840 174 992 348 q 436 0 689 0 l -29 0 l -18 58 m 405 69 q 722 222 604 69 q 840 629 840 376 q 576 922 840 922 l 438 922 l 359 553 l 622 553 l 606 483 l 344 483 l 256 69 l 405 69 "},"ˉ":{"x_min":248,"x_max":669,"ha":695,"o":"m 650 842 l 248 842 l 265 924 l 669 924 l 650 842 "},"Х":{"x_min":-68.296875,"x_max":1001.4375,"ha":917,"o":"m 988 933 l 976 933 q 908 913 938 933 q 818 829 878 892 l 556 539 l 723 132 q 818 58 753 58 l 836 58 l 824 0 l 449 0 l 461 58 l 477 58 q 542 72 518 58 q 566 107 566 86 q 539 203 566 136 l 449 424 l 242 193 q 186 95 186 131 q 268 58 186 58 l 272 58 l 260 0 l -68 0 l -56 58 l -50 58 q 30 82 -5 58 q 113 158 66 105 l 420 493 l 272 862 q 164 933 243 933 l 145 933 l 158 992 l 534 992 l 522 933 l 490 933 q 425 894 425 933 q 450 811 425 875 l 528 608 l 702 808 q 755 899 755 869 q 688 933 755 933 l 684 933 l 696 992 l 1001 992 l 988 933 "},"r":{"x_min":61,"x_max":657,"ha":650,"o":"m 541 556 q 486 666 541 666 q 349 539 421 666 q 242 252 277 412 l 190 0 l 61 0 l 177 557 q 185 620 185 596 q 75 686 185 686 l 63 686 l 76 745 l 322 745 l 292 544 l 307 544 q 416 713 362 668 q 543 758 471 758 q 657 662 657 758 q 541 556 657 556 "},"₤":{"x_min":-1,"x_max":778,"ha":777,"o":"m 347 553 l 589 553 l 575 487 l 356 487 l 359 468 q 364 390 364 433 l 554 390 l 540 324 l 355 324 q 189 130 330 215 l 190 123 q 297 149 247 149 q 418 122 337 149 q 526 96 498 96 q 665 159 603 96 l 702 113 q 466 -14 577 -14 q 338 16 422 -14 q 204 47 254 47 q 43 8 127 47 l 24 -1 l -1 54 l 47 82 q 241 324 214 177 l 53 324 l 66 390 l 247 390 q 237 468 245 423 l 234 487 l 87 487 l 101 553 l 222 553 q 208 677 208 624 q 299 918 208 831 q 547 1006 391 1006 q 715 968 652 1006 q 778 869 778 930 q 662 759 778 759 q 526 936 662 936 q 380 871 431 936 q 330 686 330 805 q 347 553 330 627 "},"ж":{"x_min":1,"x_max":1402,"ha":1403,"o":"m 561 0 l 632 344 l 530 344 q 391 81 488 179 q 173 -17 295 -17 q 47 19 93 -17 q 1 114 1 56 q 31 184 1 157 q 112 211 62 211 q 199 53 112 53 q 352 190 284 53 q 421 480 421 328 q 302 668 421 668 q 137 568 204 668 q 125 603 125 581 q 181 707 125 659 q 330 756 237 756 q 491 687 433 756 q 550 495 550 618 q 543 407 550 450 l 645 407 l 716 745 l 837 745 l 765 407 l 874 407 q 1013 662 918 566 q 1229 758 1109 758 q 1355 725 1309 758 q 1402 634 1402 692 q 1372 564 1402 591 q 1291 536 1342 536 q 1203 695 1291 695 q 1051 556 1119 695 q 982 263 982 417 q 1100 73 982 73 q 1266 173 1199 73 q 1277 138 1277 161 q 1221 34 1277 82 q 1072 -13 1165 -13 q 911 55 969 -13 q 853 247 853 123 q 861 344 853 289 l 752 344 l 677 0 l 561 0 "},"x":{"x_min":-28,"x_max":783,"ha":758,"o":"m -28 0 l -12 58 l 5 58 q 71 75 43 58 q 149 154 99 92 l 327 369 l 237 586 q 193 668 210 650 q 137 686 176 686 l 119 686 l 130 745 l 315 745 l 420 464 l 605 745 l 783 745 l 760 686 l 742 686 q 674 666 702 686 q 598 586 647 647 l 452 398 l 548 158 q 590 77 572 95 q 648 58 607 58 l 666 58 l 655 0 l 469 0 l 356 306 l 148 0 l -28 0 "},"è":{"x_min":60,"x_max":659,"ha":685,"o":"m 556 173 q 571 138 571 164 q 505 34 571 82 q 330 -14 440 -14 q 134 62 209 -14 q 60 272 60 139 q 177 606 60 454 q 473 758 294 758 q 610 716 562 758 q 659 599 659 674 q 541 404 659 487 q 254 321 424 321 l 231 321 q 205 322 218 321 q 203 263 203 303 q 356 73 203 73 q 556 173 475 73 m 218 383 l 232 383 q 435 444 355 383 q 515 601 515 504 q 434 695 515 695 q 308 609 367 695 q 218 383 250 524 m 489 842 q 310 1049 384 943 l 314 1064 l 453 1064 q 546 860 493 959 l 541 842 l 489 842 "},"Ø":{"x_min":72,"x_max":988,"ha":1031,"o":"m 825 955 l 897 1048 l 978 1048 l 876 916 q 988 625 988 813 q 833 185 988 386 q 436 -16 678 -16 q 240 34 324 -16 l 175 -56 l 93 -56 l 185 73 q 72 369 72 179 q 228 807 72 608 q 628 1007 384 1007 q 825 955 740 1007 m 257 168 l 767 872 q 617 931 710 931 q 333 738 443 931 q 223 329 223 546 q 257 168 223 235 m 806 815 l 297 112 q 444 59 355 59 q 727 251 617 59 q 836 661 836 443 q 806 815 836 749 "},"с":{"x_min":60,"x_max":676,"ha":676,"o":"m 556 173 q 571 138 571 164 q 505 34 571 82 q 330 -14 440 -14 q 134 62 209 -14 q 60 272 60 139 q 177 606 60 454 q 473 758 294 758 q 622 719 568 758 q 676 624 676 681 q 642 554 676 582 q 552 527 608 527 q 523 649 552 602 q 444 695 495 695 q 275 549 347 695 q 203 263 203 403 q 356 73 203 73 q 556 173 477 73 "},"÷":{"x_min":102,"x_max":698,"ha":777,"o":"m 400 836 q 471 759 471 836 q 400 683 471 683 q 329 759 329 683 q 400 836 329 836 m 698 455 l 102 455 l 102 538 l 698 538 l 698 455 m 400 310 q 471 233 471 310 q 400 157 471 157 q 329 233 329 157 q 400 310 329 310 "},"h":{"x_min":61,"x_max":808.421875,"ha":832,"o":"m 319 569 q 576 757 434 757 q 725 602 725 757 q 699 450 725 558 l 663 285 q 645 140 645 202 q 694 73 645 73 q 783 105 734 73 l 808 64 q 638 -14 717 -14 q 546 23 581 -14 q 512 124 512 60 q 539 312 512 188 l 571 456 q 591 586 591 540 q 527 669 591 669 q 368 563 450 669 q 264 355 286 457 l 190 0 l 61 0 l 241 858 q 254 931 254 919 q 156 996 254 996 l 145 996 l 157 1055 l 413 1055 l 359 800 q 304 569 335 686 l 319 569 "},".":{"x_min":61,"x_max":239,"ha":397,"o":"m 147 -11 q 61 73 61 -11 q 85 150 61 121 q 152 180 110 180 q 239 95 239 180 q 214 17 239 46 q 147 -11 189 -11 "},"f":{"x_min":-195.109375,"x_max":676,"ha":442,"o":"m 487 665 l 331 665 l 186 -10 q 81 -256 150 -178 q -114 -334 12 -334 q -195 -323 -153 -334 l -182 -262 q -118 -271 -147 -271 q -12 -212 -51 -271 q 56 -12 26 -152 l 202 665 l 76 665 l 84 715 l 217 745 l 232 820 q 496 1070 281 1070 q 630 1041 585 1070 q 676 967 676 1013 q 560 877 676 877 q 490 1007 560 1007 q 410 964 439 1007 q 366 833 382 922 l 348 745 l 502 745 l 487 665 "},"A":{"x_min":-77.84375,"x_max":912.375,"ha":979,"o":"m 277 332 l 193 186 q 167 108 167 139 q 244 58 167 58 l 276 58 l 265 0 l -77 0 l -66 58 l -39 58 q 22 77 -2 58 q 89 166 47 97 l 572 992 l 680 992 l 812 132 q 835 73 818 88 q 894 58 852 58 l 912 58 l 900 0 l 523 0 l 533 58 l 566 58 q 666 128 666 58 q 663 176 666 157 l 640 332 l 277 332 m 597 644 q 574 864 576 792 q 466 657 542 789 l 318 402 l 631 402 l 597 644 "},"O":{"x_min":72,"x_max":988,"ha":1031,"o":"m 628 1007 q 888 906 789 1007 q 988 625 988 806 q 833 185 988 386 q 436 -16 678 -16 q 171 88 271 -16 q 72 369 72 192 q 228 807 72 608 q 628 1007 384 1007 m 444 59 q 727 251 617 59 q 836 661 836 443 q 778 861 836 791 q 617 931 721 931 q 333 738 443 931 q 223 329 223 546 q 283 129 223 199 q 444 59 342 59 "},"3":{"x_min":-4,"x_max":719,"ha":777,"o":"m 246 479 l 260 549 l 304 549 q 498 621 422 549 q 574 810 574 694 q 456 936 574 936 q 260 729 302 936 q 157 818 157 729 q 243 952 157 898 q 463 1006 330 1006 q 650 952 581 1006 q 719 807 719 898 q 644 623 719 701 q 439 522 569 545 q 593 455 539 512 q 648 312 648 398 q 539 70 648 155 q 265 -14 431 -14 q 63 25 131 -14 q -4 131 -4 65 q 25 206 -4 177 q 101 234 54 234 q 147 110 101 158 q 276 62 193 62 q 439 125 375 62 q 503 298 503 189 q 451 432 503 384 q 306 479 400 479 l 246 479 "},"9":{"x_min":49.09375,"x_max":723,"ha":777,"o":"m 549 476 q 336 382 458 382 q 165 445 228 382 q 102 612 102 508 q 208 894 102 782 q 468 1006 315 1006 q 654 934 585 1006 q 723 731 723 862 q 595 225 723 464 q 243 -14 467 -14 q 49 110 49 -14 q 70 168 49 145 q 131 191 92 191 q 166 92 133 129 q 254 55 199 55 q 420 153 351 55 q 549 476 488 252 m 571 576 q 593 740 593 666 q 465 929 593 929 q 308 831 374 929 q 242 608 242 734 q 277 496 242 534 q 372 458 313 458 q 571 576 483 458 "},"l":{"x_min":102,"x_max":415.34375,"ha":423,"o":"m 140 996 l 152 1055 l 415 1055 l 254 298 q 233 144 233 198 q 279 73 233 73 q 379 109 319 73 l 404 68 q 216 -14 308 -14 q 134 22 166 -14 q 102 117 102 59 q 132 336 102 183 l 245 869 q 254 931 254 910 q 156 996 254 996 l 140 996 "},"4":{"x_min":-20,"x_max":731,"ha":777,"o":"m 177 0 l 189 58 l 250 58 q 345 83 316 58 q 386 158 375 107 l 408 273 l -20 273 l -7 328 l 562 992 l 695 992 l 557 350 l 731 350 l 714 273 l 542 273 l 518 153 q 512 114 512 125 q 612 58 512 58 l 644 58 l 632 0 l 177 0 m 479 609 q 547 879 512 767 q 425 719 489 791 l 109 350 l 425 350 l 479 609 "},"Ъ":{"x_min":105.375,"x_max":923,"ha":981,"o":"m 113 0 l 124 58 l 142 58 q 279 158 257 58 l 441 922 l 335 922 q 196 808 236 922 l 177 749 l 105 749 l 163 992 l 755 992 l 742 933 l 696 933 q 602 910 631 933 q 563 840 573 887 l 500 549 l 580 549 q 923 316 923 549 q 820 82 923 165 q 522 0 717 0 l 113 0 m 399 69 l 506 69 q 771 303 771 69 q 575 479 771 479 l 486 479 l 399 69 "},"Ü":{"x_min":134,"x_max":1105.234375,"ha":1014,"o":"m 139 933 l 151 992 l 555 992 l 545 933 l 526 933 q 431 908 461 933 q 390 833 401 884 l 286 343 q 269 211 269 262 q 469 61 269 61 q 647 113 581 61 q 739 286 713 165 l 857 839 q 862 877 862 864 q 762 933 862 933 l 744 933 l 756 992 l 1105 992 l 1094 933 l 1076 933 q 981 908 1010 933 q 939 833 951 884 l 823 283 q 449 -14 760 -14 q 214 48 295 -14 q 134 226 134 110 q 148 349 134 282 l 252 839 q 257 877 257 865 q 157 933 257 933 l 139 933 m 523 1107 q 456 1176 456 1107 q 529 1264 456 1264 q 597 1194 597 1264 q 523 1107 597 1107 m 787 1107 q 720 1176 720 1107 q 793 1264 720 1264 q 861 1194 861 1264 q 787 1107 861 1107 "},"à":{"x_min":60,"x_max":797.625,"ha":804,"o":"m 507 209 l 498 209 q 238 -14 398 -14 q 107 52 154 -14 q 60 239 60 119 q 178 594 60 431 q 473 758 297 758 q 636 707 567 758 l 697 743 l 742 743 l 647 298 q 626 144 626 202 q 672 73 626 73 q 772 109 711 73 l 797 68 q 601 -14 697 -14 q 493 101 493 -14 q 507 209 493 145 m 586 645 q 481 695 554 695 q 283 544 363 695 q 203 234 203 393 q 290 73 203 73 q 434 175 358 73 q 534 399 510 278 l 586 645 m 479 842 q 300 1049 374 943 l 304 1064 l 443 1064 q 536 860 483 959 l 531 842 l 479 842 "},"ó":{"x_min":60,"x_max":738,"ha":798,"o":"m 474 758 q 667 684 596 758 q 738 470 738 610 q 624 135 738 285 q 326 -14 511 -14 q 130 61 201 -14 q 60 272 60 137 q 174 609 60 460 q 474 758 288 758 m 341 56 q 526 192 457 56 q 594 494 594 328 q 458 687 594 687 q 273 551 343 687 q 203 247 203 414 q 341 56 203 56 m 427 860 q 575 1064 506 951 l 724 1064 l 719 1049 q 478 842 613 925 l 423 842 l 427 860 "}}}
